<svg width="24" height="32" viewBox="0 0 24 32" fill="none" xmlns="http://www.w3.org/2000/svg">
<path d="M0.628098 16.7096C0.428994 16.9344 0.271032 17.2014 0.163254 17.4954C0.0554769 17.7893 0 18.1045 0 18.4227C0 18.741 0.0554769 19.0561 0.163254 19.3501C0.271032 19.644 0.428994 19.911 0.628098 20.1358L10.4863 31.2894C10.685 31.5146 10.921 31.6934 11.1808 31.8153C11.4406 31.9372 11.7192 32 12.0005 32C12.2817 32 12.5603 31.9372 12.8201 31.8153C13.0799 31.6934 13.3159 31.5146 13.5146 31.2894L23.3728 20.1358C23.5717 19.9109 23.7294 19.6438 23.837 19.3499C23.9446 19.0559 24 18.7409 24 18.4227C24 18.1046 23.9446 17.7895 23.837 17.4956C23.7294 17.2016 23.5717 16.9346 23.3728 16.7096C23.174 16.4846 22.9379 16.3062 22.6781 16.1844C22.4183 16.0627 22.1399 16 21.8586 16C21.5774 16 21.299 16.0627 21.0392 16.1844C20.7794 16.3062 20.5433 16.4846 20.3445 16.7096L11.9897 26.1379L3.65643 16.7096C2.81881 15.7862 1.44424 15.7862 0.628098 16.7096Z" fill="white"/>
<path d="M0.628098 0.709599C0.428994 0.934403 0.271032 1.20143 0.163254 1.49539C0.0554769 1.78935 0 2.10447 0 2.42272C0 2.74097 0.0554769 3.05609 0.163254 3.35005C0.271032 3.64401 0.428994 3.91104 0.628098 4.13585L10.4863 15.2894C10.685 15.5146 10.921 15.6934 11.1808 15.8153C11.4406 15.9372 11.7192 16 12.0005 16C12.2817 16 12.5603 15.9372 12.8201 15.8153C13.0799 15.6934 13.3159 15.5146 13.5146 15.2894L23.3728 4.13585C23.5717 3.91087 23.7294 3.6438 23.837 3.34986C23.9446 3.05592 24 2.74088 24 2.42272C24 2.10456 23.9446 1.78952 23.837 1.49559C23.7294 1.20165 23.5717 0.934569 23.3728 0.709599C23.174 0.484628 22.9379 0.30617 22.6781 0.184417C22.4183 0.062664 22.1399 -1.90735e-06 21.8586 0C21.5774 0 21.299 0.062664 21.0392 0.184417C20.7794 0.30617 20.5433 0.484628 20.3445 0.709599L11.9897 10.1379L3.65643 0.709599C2.81881 -0.213787 1.44424 -0.213787 0.628098 0.709599Z" fill="white"/>
</svg>
