<svg width="40" height="40" viewBox="0 0 40 40" fill="none" xmlns="http://www.w3.org/2000/svg">
<g id="exercising">
<rect width="40" height="40" rx="20" fill="white"/>
<path id="Workout icon" d="M16.4193 30.1104C16.5109 30.2096 16.5595 30.3409 16.5548 30.4758C16.55 30.6107 16.4922 30.7383 16.3939 30.8308L15.2888 31.8641C15.1902 31.9558 15.0591 32.0045 14.9245 31.9997C14.7899 31.9948 14.6628 31.9367 14.571 31.8382L8.1355 24.9026C8.04405 24.8033 7.99547 24.6719 8.00033 24.537C8.00519 24.4021 8.06309 24.2746 8.16145 24.1821L9.26803 23.1504C9.31686 23.1049 9.37416 23.0695 9.43668 23.0462C9.49919 23.0229 9.56568 23.0122 9.63234 23.0146C9.69901 23.017 9.76455 23.0325 9.82522 23.0603C9.88589 23.088 9.94049 23.1274 9.98591 23.1763L16.4193 30.1104ZM24.6309 17.0603C24.7224 17.1596 24.771 17.291 24.7661 17.4259C24.7612 17.5608 24.7033 17.6883 24.605 17.7808L17.6501 24.2778C17.5514 24.3695 17.4204 24.4182 17.2858 24.4134C17.1511 24.4085 17.024 24.3504 16.9322 24.2518L15.2721 22.4605C15.1806 22.3612 15.132 22.2298 15.1369 22.0949C15.1417 21.96 15.1996 21.8325 15.298 21.74L22.2514 15.243C22.3002 15.1976 22.3575 15.1622 22.4199 15.1389C22.4824 15.1156 22.5488 15.1049 22.6155 15.1073C22.6821 15.1097 22.7476 15.1252 22.8082 15.1529C22.8688 15.1807 22.9234 15.2201 22.9688 15.269L24.6309 17.0603ZM18.7856 27.8987C18.9759 28.1038 18.9642 28.4278 18.7597 28.6191L17.6531 29.652C17.6043 29.6974 17.547 29.7328 17.4845 29.7561C17.422 29.7794 17.3555 29.7901 17.2888 29.7877C17.2221 29.7853 17.1566 29.7698 17.0959 29.7421C17.0353 29.7143 16.9807 29.6749 16.9352 29.626L10.5033 22.6904C10.4118 22.5912 10.3631 22.4599 10.3679 22.325C10.3727 22.1901 10.4305 22.0625 10.5288 21.97L11.6333 20.9377C11.732 20.846 11.863 20.7973 11.9976 20.8021C12.1322 20.807 12.2594 20.8651 12.3512 20.9636L18.7856 27.8987ZM29.5019 17.3091C29.5933 17.4085 29.6418 17.5399 29.6368 17.6748C29.6319 17.8097 29.5739 17.9372 29.4755 18.0296L28.3694 19.0624C28.2707 19.1541 28.1396 19.203 28.0049 19.1982C27.8703 19.1935 27.743 19.1354 27.651 19.0369L21.2181 12.1029C21.1264 12.0037 21.0777 11.8724 21.0825 11.7374C21.0872 11.6025 21.1451 11.4749 21.2435 11.3824L22.3526 10.3471C22.4014 10.3017 22.4587 10.2663 22.5212 10.243C22.5836 10.2197 22.6501 10.2089 22.7167 10.2114C22.7833 10.2138 22.8488 10.2293 22.9095 10.257C22.9701 10.2848 23.0246 10.3242 23.07 10.373L29.5019 17.3091ZM31.8647 15.1011C31.956 15.2005 32.0045 15.3319 31.9997 15.4669C31.9948 15.6018 31.937 15.7294 31.8387 15.822L30.7347 16.8543C30.6859 16.8998 30.6287 16.9352 30.5662 16.9585C30.5038 16.9818 30.4373 16.9926 30.3707 16.9903C30.3041 16.9879 30.2386 16.9724 30.1779 16.9447C30.1173 16.917 30.0627 16.8777 30.0173 16.8289L23.5854 9.89174C23.494 9.79238 23.4454 9.66099 23.4501 9.52605C23.4549 9.39111 23.5126 9.26348 23.6108 9.17081L24.7159 8.13648C24.7646 8.09096 24.8218 8.0555 24.8842 8.03213C24.9466 8.00877 25.013 7.99795 25.0796 8.00032C25.1462 8.00268 25.2117 8.01817 25.2723 8.0459C25.3329 8.07363 25.3874 8.11306 25.4328 8.16191L31.8647 15.1011Z" fill="#9747FF"/>
</g>
</svg>
