<svg width="64" height="64" viewBox="0 0 64 64" fill="none" xmlns="http://www.w3.org/2000/svg">
<path d="M45.3333 22.1538L44.9707 21.8191C41.7881 18.8813 37.4716 17.2308 32.9707 17.2308H32C27.7565 17.2308 23.6869 18.7868 20.6863 21.5566C17.6857 24.3263 16 28.083 16 32C16 35.917 17.6857 39.6737 20.6863 42.4434C23.6869 45.2132 27.7565 46.7692 32 46.7692H32.9707C37.472 46.7692 41.7867 45.12 44.9707 42.1809L45.3333 41.8462M2.832 48.2942C1.08773 47.3549 0 45.5338 0 43.5528V20.4472C0 18.4662 1.08773 16.6451 2.832 15.7058L29.4469 1.37472C31.0408 0.516493 32.9592 0.516495 34.5531 1.37472L61.168 15.7058C62.9123 16.6451 64 18.4662 64 20.4472V43.5528C64 45.5338 62.9123 47.3549 61.168 48.2942L34.5531 62.6253C32.9592 63.4835 31.0408 63.4835 29.4469 62.6253L2.832 48.2942Z" fill="#17D1E0"/>
<rect x="16" y="16" width="32" height="32" rx="12" fill="#17D1E0"/>
<path d="M32 48L29.68 45.6981C21.44 37.5542 16 32.1831 16 25.5913C16 20.2202 19.872 16 24.8 16C27.584 16 30.256 17.4125 32 19.6447C33.744 17.4125 36.416 16 39.2 16C44.128 16 48 20.2202 48 25.5913C48 32.1831 42.56 37.5542 34.32 45.7155L32 48Z" fill="white"/>
</svg>
