<svg width="30" height="24" viewBox="0 0 30 24" fill="none" xmlns="http://www.w3.org/2000/svg">
<g id="Vector icon">
<path id="Vector" d="M29.5 12.5027C29.5 12.9005 29.342 13.2821 29.0607 13.5634C28.7794 13.8447 28.3978 14.0027 28 14.0027H24.9275L20.3412 23.174C20.2166 23.423 20.0252 23.6324 19.7883 23.7788C19.5514 23.9251 19.2785 24.0027 19 24.0027H18.925C18.6341 23.988 18.3538 23.8889 18.1183 23.7175C17.8828 23.5462 17.7023 23.3099 17.5987 23.0377L10.875 5.39645L7.365 13.1277C7.24523 13.389 7.0529 13.6104 6.81091 13.7655C6.56892 13.9206 6.28745 14.003 6 14.0027H2C1.60218 14.0027 1.22064 13.8447 0.93934 13.5634C0.658035 13.2821 0.5 12.9005 0.5 12.5027C0.5 12.1049 0.658035 11.7233 0.93934 11.442C1.22064 11.1607 1.60218 11.0027 2 11.0027H5.03375L9.635 0.877703C9.75771 0.608574 9.95725 0.381731 10.2085 0.225696C10.4598 0.0696606 10.7516 -0.00860127 11.0472 0.000750087C11.3429 0.0101014 11.6292 0.106649 11.8701 0.278253C12.111 0.449857 12.2958 0.688857 12.4012 0.965204L19.1863 18.7727L22.6588 11.8277C22.7839 11.5794 22.9756 11.3707 23.2124 11.2251C23.4493 11.0794 23.7219 11.0024 24 11.0027H28C28.3978 11.0027 28.7794 11.1607 29.0607 11.442C29.342 11.7233 29.5 12.1049 29.5 12.5027Z" fill="#7D83A7"/>
</g>
</svg>
