<svg width="64" height="64" viewBox="0 0 64 64" fill="none" xmlns="http://www.w3.org/2000/svg">
<path d="M32 58.1818C35.4382 58.1818 38.8428 57.5046 42.0193 56.1889C45.1959 54.8731 48.0821 52.9445 50.5133 50.5133C52.9445 48.0821 54.8731 45.1959 56.1889 42.0193C57.5046 38.8428 58.1818 35.4382 58.1818 32C58.1818 28.5618 57.5046 25.1572 56.1889 21.9807C54.8731 18.8041 52.9445 15.9179 50.5133 13.4867C48.0821 11.0555 45.1959 9.12691 42.0193 7.81115C38.8428 6.49539 35.4382 5.81818 32 5.81818C25.0562 5.81818 18.3967 8.57662 13.4867 13.4867C8.57662 18.3967 5.81818 25.0562 5.81818 32C5.81818 38.9439 8.57662 45.6033 13.4867 50.5133C18.3967 55.4234 25.0562 58.1818 32 58.1818ZM64 32C64 49.6727 49.6727 64 32 64C14.3273 64 0 49.6727 0 32C0 14.3273 14.3273 0 32 0C49.6727 0 64 14.3273 64 32ZM32.2473 53.8182H26.1818V39.2727H15.3891L31.7527 10.1818H37.8182V24.7273H48.6109L32.2473 53.8182ZM32 42.3884L38.6618 30.5455H32V21.6116L25.3382 33.4545H32V42.3884Z" fill="#FFF4E9"/>
</svg>
