<svg width="254" height="254" viewBox="0 0 254 254" fill="none" xmlns="http://www.w3.org/2000/svg">
<path d="M253.183 127C253.183 197.14 196.506 254 126.592 254C56.677 254 8.6214e-08 197.14 5.55401e-08 127C2.48661e-08 56.8598 56.677 -2.47862e-08 126.592 -5.53615e-08C196.506 -8.59368e-08 253.183 56.8598 253.183 127ZM18.9887 127C18.9887 186.619 67.1642 234.95 126.592 234.95C186.019 234.95 234.195 186.619 234.195 127C234.195 67.3809 186.019 19.05 126.592 19.05C67.1642 19.05 18.9887 67.3809 18.9887 127Z" fill="#F7F8FA"/>
<path d="M224.346 126.998C224.346 181.162 180.579 225.07 126.589 225.07C72.5993 225.07 28.832 181.162 28.832 126.998C28.832 72.8342 72.5993 28.9258 126.589 28.9258C180.579 28.9258 224.346 72.8342 224.346 126.998ZM47.8208 126.998C47.8208 170.641 83.0865 206.02 126.589 206.02C170.091 206.02 205.357 170.641 205.357 126.998C205.357 83.3552 170.091 47.9758 126.589 47.9758C83.0865 47.9758 47.8208 83.3552 47.8208 126.998Z" fill="#F7F8FA"/>
<path d="M195.512 127.004C195.512 165.191 164.655 196.148 126.59 196.148C88.5255 196.148 57.668 165.191 57.668 127.004C57.668 88.8164 88.5255 57.8594 126.59 57.8594C164.655 57.8594 195.512 88.8164 195.512 127.004ZM76.6567 127.004C76.6567 154.67 99.0127 177.098 126.59 177.098C154.168 177.098 176.523 154.67 176.523 127.004C176.523 99.3374 154.168 76.9094 126.59 76.9094C99.0127 76.9094 76.6567 99.3374 76.6567 127.004Z" fill="#F7F8FA"/>
</svg>
