<svg width="10" height="10" viewBox="0 0 10 10" fill="none" xmlns="http://www.w3.org/2000/svg">
<path d="M4.84043 3.61814L6.00048 4.28975C6.07131 4.16741 6.1641 4.06569 6.27097 3.9867L4.96898 3.22893C4.95406 3.36221 4.91192 3.49464 4.84043 3.61814ZM4.41072 1.74698C4.33843 1.87119 4.2959 2.00453 4.28096 2.13874L2.42201 1.06251C2.53316 0.982802 2.62966 0.878881 2.70291 0.753018L4.41072 1.74698ZM8.44972 4.55223C8.52685 4.49484 8.59659 4.42557 8.65595 4.3452C8.61545 4.4364 8.58968 4.53113 8.57786 4.62642L8.44972 4.55223ZM7.72831 5.86543L8.57786 5.37358C8.59399 5.50362 8.6361 5.63261 8.70618 5.75302L6.99837 6.74698C6.85988 6.50904 6.63832 6.34952 6.39179 6.28377C6.40621 6.22487 6.41532 6.16464 6.41889 6.10386C6.70948 6.24871 7.06493 6.24949 7.36695 6.07464L7.72831 5.86543ZM2.7462 8.16401C2.5424 8.44625 2.4953 8.82375 2.64232 9.1548C2.35731 8.76895 1.83326 8.63889 1.39937 8.85159C1.38293 8.83848 1.36598 8.82582 1.34853 8.81364C1.32952 8.69718 1.28942 8.58215 1.22679 8.47396L2.38685 7.80235C2.47667 7.9575 2.6018 8.07948 2.7462 8.16401Z" fill="white" stroke="white" stroke-width="2" stroke-linecap="round" stroke-dasharray="2 4 6 8"/>
</svg>
