<svg width="224" height="80" viewBox="0 0 224 80" fill="none" xmlns="http://www.w3.org/2000/svg">
<rect y="20" width="40" height="40" rx="8" fill="white"/>
<path d="M33.3333 20H6.66667C4.89856 20 3.20286 20.5268 1.95262 21.4645C0.702379 22.4021 0 23.6739 0 25V55C0 56.3261 0.702379 57.5979 1.95262 58.5355C3.20286 59.4732 4.89856 60 6.66667 60H33.3333C35.1014 60 36.7971 59.4732 38.0474 58.5355C39.2976 57.5979 40 56.3261 40 55V25C40 23.6739 39.2976 22.4021 38.0474 21.4645C36.7971 20.5268 35.1014 20 33.3333 20ZM13.3333 38.75H26.6667C27.1087 38.75 27.5326 38.8817 27.8452 39.1161C28.1577 39.3505 28.3333 39.6685 28.3333 40C28.3333 40.3315 28.1577 40.6495 27.8452 40.8839C27.5326 41.1183 27.1087 41.25 26.6667 41.25H13.3333C12.8913 41.25 12.4674 41.1183 12.1548 40.8839C11.8423 40.6495 11.6667 40.3315 11.6667 40C11.6667 39.6685 11.8423 39.3505 12.1548 39.1161C12.4674 38.8817 12.8913 38.75 13.3333 38.75Z" fill="#C7CEE0"/>
<g clip-path="url(#clip0_196_2252)">
<rect x="72" width="80" height="80" rx="20" fill="white"/>
<path fill-rule="evenodd" clip-rule="evenodd" d="M126.925 12C127.639 11.9999 128.344 12.1659 128.996 12.4872C129.647 12.8084 130.23 13.2776 130.706 13.8642C131.182 14.4508 131.54 15.1415 131.758 15.8914C131.976 16.6413 132.048 17.4334 131.969 18.216L127.458 63.016C127.321 64.3862 126.73 65.6524 125.799 66.572C124.869 67.4916 123.663 68.0001 122.414 68H101.583C100.334 68.0001 99.1288 67.4916 98.1981 66.572C97.2675 65.6524 96.6769 64.3862 96.5394 63.016L92.0308 18.216C91.9523 17.4336 92.0242 16.6417 92.2418 15.8921C92.4593 15.1424 92.8176 14.4518 93.2933 13.8652C93.7691 13.2787 94.3515 12.8094 95.0026 12.488C95.6537 12.1666 96.359 12.0003 97.0723 12H126.925ZM114.536 48.4C113.863 48.4 113.218 48.695 112.742 49.2201C112.266 49.7452 111.999 50.4574 111.999 51.2C111.999 51.9426 112.266 52.6548 112.742 53.1799C113.218 53.705 113.863 54 114.536 54C115.209 54 115.854 53.705 116.33 53.1799C116.806 52.6548 117.073 51.9426 117.073 51.2C117.073 50.4574 116.806 49.7452 116.33 49.2201C115.854 48.695 115.209 48.4 114.536 48.4ZM106.924 40C106.251 40 105.606 40.295 105.13 40.8201C104.654 41.3452 104.387 42.0574 104.387 42.8C104.387 43.5426 104.654 44.2548 105.13 44.7799C105.606 45.305 106.251 45.6 106.924 45.6C107.597 45.6 108.243 45.305 108.718 44.7799C109.194 44.2548 109.462 43.5426 109.462 42.8C109.462 42.0574 109.194 41.3452 108.718 40.8201C108.243 40.295 107.597 40 106.924 40ZM126.925 17.6H97.0723L98.1506 28.3044L98.625 28.212C99.2847 28.0888 100.048 27.988 100.909 27.932C103.771 27.7444 107.665 28.0916 112.148 30.0404L112.998 30.4268C116.784 32.2188 120.014 32.5884 122.338 32.5016L125.443 32.3112L126.925 17.6Z" fill="#7CE4EE"/>
</g>
<rect x="184" y="20" width="40" height="40" rx="18" fill="white"/>
<path fill-rule="evenodd" clip-rule="evenodd" d="M192.682 20.6243C200.204 19.7919 207.796 19.7919 215.318 20.6243C219.482 21.0903 222.842 24.3645 223.331 28.5368C224.223 36.1523 224.223 43.8457 223.331 51.4613C223.084 53.4886 222.158 55.3732 220.703 56.8094C219.249 58.2456 217.351 59.1492 215.318 59.3738C207.796 60.2087 200.204 60.2087 192.682 59.3738C190.649 59.1492 188.751 58.2456 187.297 56.8094C185.842 55.3732 184.916 53.4886 184.669 51.4613C183.777 43.8465 183.777 36.154 184.669 28.5392C184.916 26.5122 185.842 24.628 187.296 23.1918C188.75 21.7557 190.647 20.8518 192.68 20.6267L192.682 20.6243ZM204 27.8815C204.484 27.8815 204.947 28.0733 205.289 28.4146C205.631 28.756 205.823 29.219 205.823 29.7018V38.1799H214.316C214.799 38.1799 215.263 38.3717 215.605 38.7131C215.947 39.0544 216.139 39.5175 216.139 40.0002C216.139 40.483 215.947 40.9461 215.605 41.2874C215.263 41.6288 214.799 41.8206 214.316 41.8206H205.823V50.2987C205.823 50.7815 205.631 51.2445 205.289 51.5859C204.947 51.9272 204.484 52.119 204 52.119C203.516 52.119 203.053 51.9272 202.711 51.5859C202.369 51.2445 202.177 50.7815 202.177 50.2987V41.8206H193.684C193.201 41.8206 192.737 41.6288 192.395 41.2874C192.053 40.9461 191.861 40.483 191.861 40.0002C191.861 39.5175 192.053 39.0544 192.395 38.7131C192.737 38.3717 193.201 38.1799 193.684 38.1799H202.177V29.7018C202.177 29.219 202.369 28.756 202.711 28.4146C203.053 28.0733 203.516 27.8815 204 27.8815Z" fill="#6F62E1"/>
<defs>
<clipPath id="clip0_196_2252">
<rect x="72" width="80" height="80" rx="20" fill="white"/>
</clipPath>
</defs>
</svg>
