<svg width="16" height="16" viewBox="0 0 16 16" fill="none" xmlns="http://www.w3.org/2000/svg">
<path fill-rule="evenodd" clip-rule="evenodd" d="M6.00461 2.0023C4.94293 2.0023 3.92473 2.42406 3.17401 3.17478C2.42329 3.9255 2.00154 4.9437 2.00154 6.00538C2.00154 7.06706 2.42329 8.08526 3.17401 8.83598C3.92473 9.5867 4.94293 10.0085 6.00461 10.0085C7.06629 10.0085 8.08449 9.5867 8.83521 8.83598C9.58593 8.08526 10.0077 7.06706 10.0077 6.00538C10.0077 4.9437 9.58593 3.9255 8.83521 3.17478C8.08449 2.42406 7.06629 2.0023 6.00461 2.0023ZM1.13549e-07 6.00538C-0.000120482 5.06036 0.222814 4.12865 0.650671 3.28603C1.07853 2.44341 1.69923 1.71368 2.46229 1.15618C3.22535 0.598679 4.10922 0.229154 5.04202 0.077659C5.97482 -0.0738365 6.9302 -0.00302481 7.83048 0.284335C8.73075 0.571695 9.55049 1.06749 10.223 1.73139C10.8955 2.3953 11.4019 3.20856 11.7008 4.10505C11.9998 5.00154 12.0829 5.95593 11.9435 6.89061C11.8041 7.82529 11.446 8.71386 10.8984 9.48405L15.7191 14.3048C15.9014 14.4935 16.0022 14.7463 16 15.0087C15.9977 15.2711 15.8924 15.5221 15.7069 15.7076C15.5213 15.8932 15.2703 15.9984 15.0079 16.0007C14.7455 16.003 14.4927 15.9021 14.304 15.7198L9.48428 10.9001C8.58596 11.5389 7.52913 11.9181 6.42961 11.9961C5.3301 12.0741 4.23032 11.848 3.2508 11.3424C2.27127 10.8369 1.4498 10.0715 0.876397 9.13013C0.302993 8.18873 -0.000214215 7.10766 1.13549e-07 6.00538Z" fill="#353767"/>
</svg>
