<svg width="18" height="27" viewBox="0 0 18 27" fill="none" xmlns="http://www.w3.org/2000/svg">
<path id="Vector" d="M9.11401 12.8334C8.29365 12.8334 7.50689 12.4786 6.92681 11.847C6.34673 11.2154 6.02084 10.3587 6.02084 9.46547C6.02084 8.57223 6.34673 7.71558 6.92681 7.08396C7.50689 6.45234 8.29365 6.0975 9.11401 6.0975C9.93438 6.0975 10.7211 6.45234 11.3012 7.08396C11.8813 7.71558 12.2072 8.57223 12.2072 9.46547C12.2072 9.90776 12.1272 10.3457 11.9717 10.7543C11.8163 11.163 11.5884 11.5342 11.3012 11.847C11.014 12.1597 10.673 12.4078 10.2977 12.5771C9.92244 12.7463 9.52022 12.8334 9.11401 12.8334ZM9.11401 0.0351562C6.817 0.0351562 4.61407 1.0287 2.98984 2.79723C1.36561 4.56576 0.453125 6.9644 0.453125 9.46547C0.453125 16.5382 9.11401 26.9789 9.11401 26.9789C9.11401 26.9789 17.7749 16.5382 17.7749 9.46547C17.7749 6.9644 16.8624 4.56576 15.2382 2.79723C13.614 1.0287 11.411 0.0351563 9.11401 0.0351562Z" fill="#A98BFB"/>
</svg>
