<svg width="24" height="24" viewBox="0 0 24 24" fill="none" xmlns="http://www.w3.org/2000/svg">
<path d="M8.74807 4.95283L8.74818 4.9528L9.163 3.77437L9.40152 3.69949C9.40152 3.69948 9.40152 3.69947 9.40152 3.69946C9.32191 3.44591 9.14491 3.23612 8.91042 3.11363C8.67538 2.99087 8.40121 2.96647 8.14819 3.04582L8.14804 3.04587C4.00592 4.34765 1 8.216 1 12.7904C1 18.4285 5.57195 23.0004 11.211 23.0004C15.7829 23.0004 19.6513 19.9964 20.9523 15.8571C20.9958 15.7318 21.014 15.5992 21.0057 15.4668C20.9974 15.3328 20.9621 15.202 20.9021 15.0819C20.8421 14.9619 20.7586 14.8552 20.6565 14.7681C20.5544 14.6811 20.4358 14.6154 20.3078 14.5752C20.1798 14.5349 20.045 14.5208 19.9115 14.5337C19.7779 14.5466 19.6483 14.5862 19.5304 14.6503C19.4125 14.7143 19.3087 14.8014 19.2251 14.9064C19.1425 15.0102 19.0814 15.1294 19.0454 15.257C18.52 16.9224 17.4775 18.3771 16.0692 19.4099C14.6599 20.4434 12.9577 21.0006 11.21 21.0004C10.1318 21.0004 9.06409 20.788 8.06794 20.3753C7.0718 19.9627 6.16669 19.3578 5.40431 18.5954C4.64193 17.8329 4.0372 16.9277 3.62467 15.9315C3.21214 14.9353 2.99987 13.8676 3 12.7894V12.7893C2.99986 11.0415 3.55716 9.33924 4.5909 7.92991C5.62465 6.52058 7.08094 5.47769 8.74807 4.95283Z" fill="white" stroke="white" stroke-width="0.5"/>
<path d="M21.913 9.94697C21.3867 8.07286 20.3873 6.36558 19.0109 4.98912C17.6344 3.61266 15.9271 2.61327 14.053 2.08697C12.409 1.62797 11 3.05397 11 4.75997V11.454C11 12.307 11.692 12.999 12.545 12.999H19.239C20.946 12.999 22.372 11.59 21.913 9.94697Z" fill="#DC6E6D"/>
</svg>
