<svg width="24" height="24" viewBox="0 0 24 24" fill="none" xmlns="http://www.w3.org/2000/svg">
<path d="M17.2376 0.818223L23.1818 6.76238C23.5 7.08073 23.7366 7.47124 23.8715 7.90068C24.0064 8.33012 24.0356 8.7858 23.9566 9.22894C23.8776 9.67208 23.6927 10.0896 23.4176 10.4459C23.1426 10.8022 22.7855 11.0869 22.3769 11.2756L20.2576 12.2546C19.5814 12.5674 18.9848 13.0294 18.5126 13.6059C18.0405 14.1823 17.705 14.8582 17.5315 15.5828L16.5988 19.5019C16.0926 21.6292 13.4495 22.3766 11.9035 20.8306L8.38367 17.3108L2.04346 23.6494C1.9323 23.7606 1.80034 23.8487 1.65511 23.9089C1.50988 23.969 1.35422 24 1.19703 24C1.03983 24 0.884176 23.969 0.738946 23.9089C0.593715 23.8487 0.461756 23.7606 0.350602 23.6494C0.239447 23.5382 0.151275 23.4063 0.0911184 23.2611C0.0309621 23.1158 0 22.9602 0 22.803C0 22.6458 0.0309621 22.4901 0.0911184 22.3449C0.151275 22.1997 0.239447 22.0677 0.350602 21.9565L6.68922 15.6163L3.16936 12.0965C1.62344 10.5505 2.37085 7.90745 4.49809 7.40119L8.41721 6.46852C9.14225 6.29595 9.8186 5.96088 10.3952 5.48862C10.9717 5.01635 11.4334 4.41924 11.7454 3.74239L12.7244 1.62313C12.9131 1.21446 13.1978 0.857422 13.5541 0.582384C13.9104 0.307345 14.3279 0.122446 14.7711 0.0434139C15.2142 -0.0356178 15.6699 -0.00644298 16.0993 0.128456C16.5288 0.263356 16.9193 0.499988 17.2376 0.818223ZM9.23489 14.7747L13.598 19.1362C13.6482 19.1864 13.711 19.2223 13.7797 19.2402C13.8485 19.2581 13.9208 19.2574 13.9891 19.238C14.0575 19.2186 14.1194 19.1814 14.1686 19.1301C14.2177 19.0788 14.2523 19.0153 14.2687 18.9461L15.2014 15.027C15.4587 13.9496 15.9569 12.9446 16.6587 12.0876C17.3605 11.2307 18.2476 10.544 19.2531 10.0794L21.3739 9.10043C21.4324 9.0735 21.4835 9.03282 21.5228 8.98188C21.5622 8.93094 21.5886 8.87123 21.5999 8.80786C21.6112 8.74449 21.607 8.67933 21.5877 8.61792C21.5684 8.55652 21.5345 8.50071 21.4889 8.45523L15.5448 2.51108C15.4993 2.46552 15.4435 2.43163 15.3821 2.4123C15.3207 2.39297 15.2555 2.38878 15.1921 2.40007C15.1288 2.41136 15.0691 2.43781 15.0181 2.47716C14.9672 2.51651 14.9265 2.5676 14.8996 2.62606L13.9206 4.74692C13.4562 5.75258 12.7696 6.63973 11.9126 7.34155C11.0556 8.04337 10.0505 8.54156 8.97298 8.79859L5.05386 9.73126C4.98474 9.74768 4.92124 9.78225 4.86994 9.83141C4.81863 9.88056 4.78138 9.94251 4.76201 10.0109C4.74264 10.0792 4.74186 10.1515 4.75976 10.2203C4.77766 10.289 4.81358 10.3518 4.86382 10.402L9.22531 14.7651L9.23489 14.7747Z" fill="#17D1E0"/>
</svg>
