<svg width="254" height="254" viewBox="0 0 254 254" fill="none" xmlns="http://www.w3.org/2000/svg">
<path d="M126.757 9.205C126.757 3.9376 131.034 -0.369923 136.286 0.0272595C158.836 1.73244 180.584 9.46591 199.231 22.5033C220.494 37.3691 236.704 58.4164 245.676 82.809C254.649 107.202 255.952 133.767 249.412 158.926C242.871 184.085 228.801 206.628 209.096 223.517C189.392 240.407 165.001 250.831 139.209 253.385C113.418 255.939 87.4655 250.5 64.8498 237.802C42.2341 225.103 24.0419 205.755 12.7244 182.365C2.79164 161.836 -1.42666 139.06 0.424677 116.432C0.853158 111.195 5.76357 107.652 10.9533 108.474C16.1358 109.296 19.6287 114.162 19.2688 119.397C17.9784 138.167 21.592 157.011 29.8294 174.035C39.4492 193.917 54.9126 210.363 74.1359 221.157C93.3592 231.95 115.419 236.573 137.341 234.402C159.264 232.231 179.997 223.371 196.746 209.015C213.494 194.659 225.454 175.497 231.014 154.112C236.573 132.727 235.465 110.146 227.838 89.4127C220.212 68.679 206.434 50.7888 188.36 38.1528C172.903 27.3461 154.94 20.8267 136.283 19.1656C131.036 18.6985 126.757 14.4724 126.757 9.205Z" fill="#1F86FE"/>
<path d="M126.753 38.1686C126.753 32.9012 131.033 28.5828 136.276 29.0969C154.592 30.8928 172.104 37.8429 186.747 49.2381C203.912 62.5954 216.16 81.3015 221.563 102.41C226.965 123.519 225.215 145.831 216.587 165.832C207.96 185.833 192.946 202.387 173.909 212.886C154.873 223.385 132.896 227.233 111.44 223.823C89.9845 220.414 70.2686 209.941 55.3979 194.055C40.5273 178.168 31.3468 157.77 29.3025 136.073C27.5785 117.776 27.6238 105.61 34.661 91.2113C36.9733 86.48 42.9497 85.1967 47.3919 88.0249C51.8159 90.8415 52.9888 96.6576 50.8729 101.456C46.2885 111.854 46.9156 120.31 48.2317 134.278C49.879 151.76 57.2762 168.196 69.2583 180.997C81.2404 193.798 97.1265 202.236 114.415 204.983C131.703 207.73 149.411 204.63 164.749 196.17C180.088 187.71 192.186 174.372 199.137 158.256C206.089 142.14 207.499 124.162 203.146 107.154C198.793 90.1455 188.924 75.073 175.094 64.3102C163.786 55.5111 150.356 50.0014 136.267 48.2838C131.039 47.6464 126.753 43.436 126.753 38.1686Z" fill="#17D1E0"/>
<path d="M126.756 67.1401C126.756 61.8727 131.046 57.5348 136.263 58.2627C145.999 59.6213 155.373 63.0569 163.734 68.3806C174.792 75.4204 183.624 85.4711 189.2 97.3588C194.776 109.247 196.865 122.481 195.224 135.515C193.583 148.55 188.278 160.847 179.931 170.97C171.583 181.093 160.537 188.624 148.082 192.684C135.627 196.744 122.278 197.165 109.593 193.897C96.9087 190.63 85.4127 183.809 76.448 174.232C69.6526 166.973 64.5243 158.356 61.3714 148.99C59.6975 144.018 63.1401 139.012 68.2932 138.026C73.455 137.038 78.3569 140.479 80.2927 145.365C82.6018 151.193 85.9905 156.562 90.3083 161.175C96.8032 168.113 105.132 173.055 114.322 175.422C123.511 177.789 133.183 177.484 142.206 174.543C151.23 171.601 159.233 166.145 165.28 158.811C171.328 151.477 175.171 142.568 176.36 133.124C177.549 123.681 176.036 114.093 171.996 105.481C167.956 96.868 161.557 89.5863 153.546 84.4861C148.234 81.1038 142.358 78.7735 136.235 77.5873C131.064 76.5855 126.756 72.4075 126.756 67.1401Z" fill="#AF8FFF"/>
</svg>
