<svg width="16" height="16" viewBox="0 0 16 16" fill="none" xmlns="http://www.w3.org/2000/svg">
<path d="M8.11191 0.000743315C3.61288 -0.0600231 -0.0600231 3.61288 0.000743315 8.11191C0.0607405 12.4267 3.57404 15.94 7.88884 16C12.3886 16.0615 16.0608 12.3886 15.9992 7.88961C15.94 3.57404 12.4267 0.0607405 8.11191 0.000743315ZM7.46617 7.40309L9.44877 5.13397C9.55618 5.01106 9.70801 4.93585 9.87087 4.92488C10.0337 4.91392 10.1943 4.9681 10.3172 5.07551C10.4401 5.18292 10.5153 5.33475 10.5263 5.49761C10.5372 5.66047 10.4831 5.82102 10.3757 5.94393L8.39305 8.21306C8.33987 8.27392 8.27522 8.32371 8.20279 8.35958C8.13037 8.39546 8.05159 8.41671 7.97095 8.42214C7.89031 8.42757 7.80938 8.41706 7.73281 8.39122C7.65623 8.36537 7.58549 8.3247 7.52463 8.27152C7.46377 8.21833 7.41398 8.15368 7.3781 8.08126C7.34223 8.00883 7.32097 7.93005 7.31554 7.84941C7.31011 7.76877 7.32062 7.68785 7.34647 7.61127C7.37231 7.53469 7.41299 7.46395 7.46617 7.40309ZM5.97162 10.8972C5.85623 11.0125 5.69978 11.0773 5.53664 11.0773C5.37351 11.0773 5.21705 11.0125 5.10166 10.8972L3.25752 9.0511C3.20039 8.99392 3.15509 8.92606 3.1242 8.85138C3.0933 8.7767 3.07742 8.69666 3.07745 8.61584C3.07749 8.53502 3.09344 8.455 3.12441 8.38035C3.15537 8.3057 3.20073 8.23787 3.2579 8.18075C3.31507 8.12363 3.38294 8.07833 3.45762 8.04743C3.5323 8.01654 3.61233 8.00065 3.69315 8.00069C3.77397 8.00072 3.85399 8.01668 3.92865 8.04764C4.0033 8.0786 4.07112 8.12396 4.12825 8.18114L5.97431 10.0272C6.08927 10.143 6.15357 10.2996 6.15306 10.4627C6.15256 10.6259 6.08729 10.7821 5.97162 10.8972ZM12.7713 5.94393L8.46843 10.8668C8.41299 10.9303 8.34509 10.9818 8.26894 11.0179C8.19279 11.0541 8.11002 11.0743 8.02576 11.0772H8.00499C7.92413 11.0772 7.84406 11.0612 7.76936 11.0303C7.69465 10.9993 7.62678 10.954 7.56963 10.8968L5.72586 9.05071C5.6105 8.93525 5.54573 8.77868 5.5458 8.61546C5.54587 8.45224 5.61078 8.29573 5.72625 8.18037C5.84171 8.065 5.99828 8.00023 6.1615 8.0003C6.32472 8.00038 6.48123 8.06529 6.59659 8.18075L7.74269 9.32801C7.77249 9.35781 7.80809 9.38117 7.84728 9.39665C7.88648 9.41213 7.92844 9.41939 7.97055 9.41798C8.01267 9.41658 8.05405 9.40653 8.09213 9.38847C8.1302 9.37042 8.16417 9.34473 8.19191 9.31301L11.8456 5.13397C11.953 5.01106 12.1048 4.93585 12.2677 4.92488C12.4305 4.91392 12.5911 4.9681 12.714 5.07551C12.8369 5.18292 12.9121 5.33475 12.9231 5.49761C12.9341 5.66047 12.8799 5.82102 12.7725 5.94393H12.7713Z" fill="white"/>
</svg>
