<svg width="42" height="158" viewBox="0 0 42 158" fill="none" xmlns="http://www.w3.org/2000/svg">
<circle cx="21" cy="21" r="21" fill="white"/>
<g clip-path="url(#clip0_158_2970)">
<path d="M23.5419 28.1975C24.0164 27.7393 24.0297 26.9832 23.5715 26.5086C23.1133 26.0341 22.3572 26.0208 21.8827 26.479C21.4081 26.9372 21.3949 27.6933 21.853 28.1678C22.3112 28.6424 23.0673 28.6556 23.5419 28.1975Z" fill="#E5B35A"/>
<path d="M23.8714 27.063L21.6008 27.7848L19.5664 23.2136L22.3789 22.1992L23.8714 27.063Z" fill="#E5B35A"/>
<path d="M27.4292 27.7898L26.8311 29.7923L22.3555 28.478L23.0567 26.2617L27.4292 27.7898Z" fill="#E5B35A"/>
<path d="M28.4985 28.7832L27.9735 30.527C27.9495 30.6075 27.9098 30.6825 27.8566 30.7476C27.8035 30.8127 27.7381 30.8667 27.664 30.9065C27.5899 30.9462 27.5088 30.9709 27.4251 30.9791C27.3415 30.9874 27.257 30.979 27.1766 30.9545L27.1466 30.9451C27.0661 30.921 26.9911 30.8813 26.926 30.8282C26.8609 30.7751 26.8069 30.7096 26.7671 30.6356C26.7274 30.5615 26.7027 30.4803 26.6945 30.3967C26.6862 30.313 26.6946 30.2286 26.7191 30.1482L27.2441 28.4045C27.2682 28.3239 27.3079 28.2489 27.361 28.1838C27.4141 28.1187 27.4796 28.0647 27.5537 28.025C27.6277 27.9852 27.7089 27.9605 27.7925 27.9523C27.8762 27.9441 27.9606 27.9524 28.041 27.977L28.071 27.9863C28.4104 28.0876 28.6016 28.4438 28.4985 28.7832Z" fill="#4568AD"/>
<path d="M27.0977 30.9304L27.9924 27.9609L28.8416 28.2167L27.9468 31.1861L27.0977 30.9304Z" fill="#4568AD"/>
<path d="M27.1172 28.816L27.4266 27.7891L28.116 27.9968L27.8066 29.0237L27.1172 28.816Z" fill="#4568AD"/>
<path d="M15.3767 32.5415L13.7923 31.6415C13.7193 31.6 13.6551 31.5446 13.6036 31.4783C13.552 31.412 13.514 31.3362 13.4917 31.2553C13.4694 31.1743 13.4633 31.0897 13.4737 31.0064C13.4841 30.9231 13.5108 30.8426 13.5523 30.7696L13.5673 30.7415C13.6088 30.6685 13.6642 30.6044 13.7305 30.5528C13.7968 30.5012 13.8725 30.4632 13.9535 30.4409C14.0345 30.4186 14.119 30.4125 14.2024 30.4229C14.2857 30.4333 14.3661 30.46 14.4392 30.5015L16.0235 31.4015C16.0965 31.443 16.1607 31.4984 16.2122 31.5647C16.2638 31.631 16.3018 31.7068 16.3241 31.7877C16.3464 31.8687 16.3525 31.9532 16.3421 32.0366C16.3317 32.1199 16.305 32.2004 16.2635 32.2734L16.2485 32.3015C16.1646 32.4488 16.0257 32.5568 15.8622 32.6018C15.6988 32.6468 15.5241 32.6251 15.3767 32.5415Z" fill="#4568AD"/>
<path d="M13.5946 30.6953L16.2905 32.2279L15.8521 32.9989L13.1562 31.4663L13.5946 30.6953Z" fill="#4568AD"/>
<path d="M15.6527 31.1836L16.585 31.7137L16.2291 32.3395L15.2969 31.8095L15.6527 31.1836Z" fill="#4568AD"/>
<path d="M19.2734 27.4173C19.445 26.7803 19.0678 26.1249 18.4308 25.9533C17.7939 25.7818 17.1385 26.159 16.9669 26.796C16.7953 27.4329 17.1726 28.0883 17.8095 28.2599C18.4464 28.4314 19.1019 28.0542 19.2734 27.4173Z" fill="#F4D598"/>
<path d="M18.953 27.963L17.168 26.3861L20.0423 22.293L22.3598 24.1848L18.953 27.963Z" fill="#F4D598"/>
<path d="M16.5727 31.7348L14.7539 30.7055L17.0658 26.543L19.0702 27.7205L16.5727 31.7348Z" fill="#F4D598"/>
<path d="M21.2014 24.7348C22.0267 24.7348 22.6958 24.0658 22.6958 23.2405C22.6958 22.4151 22.0267 21.7461 21.2014 21.7461C20.3761 21.7461 19.707 22.4151 19.707 23.2405C19.707 24.0658 20.3761 24.7348 21.2014 24.7348Z" fill="#F4D598"/>
<path d="M17.7903 21.6942L16.7031 20.8874L18.3355 18.6875L19.4226 19.4941L17.7903 21.6942Z" fill="#FBC11B"/>
<path d="M17.3743 21.9584C17.7461 21.8845 17.9875 21.5232 17.9136 21.1515C17.8397 20.7798 17.4784 20.5383 17.1067 20.6123C16.7349 20.6862 16.4935 21.0474 16.5674 21.4192C16.6413 21.7909 17.0026 22.0323 17.3743 21.9584Z" fill="#FBC11B"/>
<path d="M17.5156 19.2332L19.2444 20.4689L20.5231 18.6801C20.6826 18.4564 20.7469 18.1787 20.7019 17.9077C20.6569 17.6367 20.5063 17.3946 20.2831 17.2345L20.24 17.2045C20.0163 17.045 19.7386 16.9807 19.4676 17.0257C19.1966 17.0707 18.9545 17.2213 18.7944 17.4445L17.5156 19.2332Z" fill="#3615AF"/>
<path d="M15.0403 22.2001L14.9023 20.8534L17.2097 20.6172L17.3477 21.9638L15.0403 22.2001Z" fill="#FBC11B"/>
<path d="M13.4184 21.6484L13.4221 21.6916C13.4331 21.8039 13.4662 21.9129 13.5194 22.0124C13.5726 22.1119 13.6448 22.2 13.7321 22.2716C13.8193 22.3431 13.9198 22.3968 14.0278 22.4295C14.1358 22.4622 14.2492 22.4733 14.3615 22.4622L14.8452 22.4134C14.9575 22.4024 15.0666 22.3694 15.1661 22.3162C15.2656 22.263 15.3537 22.1907 15.4252 22.1035C15.4968 22.0162 15.5505 21.9157 15.5832 21.8077C15.6159 21.6997 15.627 21.5864 15.6159 21.4741L15.6121 21.4309C15.6011 21.3186 15.568 21.2096 15.5148 21.1101C15.4617 21.0106 15.3894 20.9225 15.3021 20.8509C15.2149 20.7794 15.1144 20.7257 15.0064 20.693C14.8984 20.6603 14.785 20.6492 14.6727 20.6603L14.189 20.7091C14.0766 20.7199 13.9675 20.7529 13.8679 20.806C13.7683 20.8592 13.6802 20.9315 13.6086 21.0187C13.537 21.106 13.4834 21.2066 13.4507 21.3146C13.4181 21.4227 13.4071 21.5361 13.4184 21.6484ZM19.8327 14.7991L20.3184 16.7041L18.9102 17.2478L17.4402 13.6328L19.8327 14.7991Z" fill="#FBC11B"/>
<path d="M19.7249 12.8662L20.1055 16.1212L17.983 16.3855C16.9968 16.5093 16.108 15.7818 16.033 14.7899L15.943 13.588C15.8586 12.478 16.753 11.5368 17.8649 11.563L18.3074 11.5743C19.0368 11.593 19.6405 12.1424 19.7249 12.8662Z" fill="#FBC11B"/>
<path d="M20.0609 15.0641L19.0484 15.0041L18.9153 14.3141C18.8934 14.1999 18.8408 14.0938 18.7632 14.0073C18.6855 13.9207 18.5858 13.8569 18.4746 13.8228L18.3284 14.6178C18.094 14.6028 17.8821 14.4678 17.7715 14.2597L17.5521 13.8453C17.5053 13.7569 17.4379 13.681 17.3557 13.6239C17.2735 13.5668 17.1789 13.5302 17.0796 13.5172L15.9434 13.3691C15.9434 13.3691 15.7728 11.8316 17.269 11.4678C17.5278 11.4059 17.7846 11.3591 18.0321 11.3234C19.1834 11.1622 20.209 12.0622 20.2053 13.2247C20.2003 13.8404 20.152 14.4551 20.0609 15.0641Z" fill="#6D4C41"/>
<path d="M16.8176 14.2489C16.8326 14.3933 16.7464 14.5208 16.6264 14.532C16.5064 14.5433 16.3976 14.4364 16.3845 14.292C16.3695 14.1476 16.4558 14.0201 16.5758 14.0089C16.6958 13.9958 16.8026 14.1045 16.8176 14.2489Z" fill="#C07B47"/>
<path d="M22.1322 23.0841L19.7997 23.6372C19.3535 23.7422 18.9072 23.4666 18.8003 23.0222L18.2266 18.7153C18.1497 18.0122 18.0916 16.8197 19.0235 16.6003L19.8297 16.4091C20.6322 16.2197 21.191 17.0878 21.4253 17.9147L22.7491 22.0847C22.7998 22.299 22.7633 22.5247 22.6476 22.7121C22.5319 22.8995 22.3465 23.0333 22.1322 23.0841Z" fill="#651FFF"/>
<path d="M23.9444 19.4839L23.2688 20.6573L20.8945 19.2904L21.5699 18.1172L23.9444 19.4839Z" fill="#FBC11B"/>
<path d="M23.8167 20.7283C24.1774 20.612 24.3755 20.2252 24.2591 19.8645C24.1427 19.5038 23.756 19.3058 23.3953 19.4221C23.0346 19.5385 22.8365 19.9252 22.9529 20.2859C23.0692 20.6466 23.456 20.8447 23.8167 20.7283Z" fill="#FBC11B"/>
<path d="M21.5293 20.0437L22.5549 18.1837L20.6312 17.1206C20.3904 16.9882 20.107 16.9567 19.843 17.033C19.5791 17.1093 19.3561 17.2871 19.2231 17.5274L19.1987 17.5724C19.0663 17.8132 19.0348 18.0966 19.1111 18.3606C19.1874 18.6245 19.3652 18.8475 19.6056 18.9806L21.5293 20.0437Z" fill="#3615AF"/>
<path d="M25.2931 21.8705L24.0895 22.4906L23.0273 20.4287L24.2309 19.8086L25.2931 21.8705Z" fill="#FBC11B"/>
<path d="M25.3675 23.5788L25.405 23.56C25.5056 23.5087 25.595 23.438 25.6682 23.352C25.7414 23.266 25.7969 23.1664 25.8316 23.059C25.8662 22.9515 25.8793 22.8383 25.8702 22.7257C25.861 22.6132 25.8297 22.5036 25.7781 22.4031L25.5569 21.9719C25.5055 21.8713 25.4348 21.7819 25.3489 21.7087C25.2629 21.6355 25.1633 21.58 25.0559 21.5454C24.9484 21.5107 24.8352 21.4976 24.7226 21.5067C24.6101 21.5159 24.5005 21.5472 24.4 21.5988L24.3625 21.6175C24.262 21.6689 24.1725 21.7396 24.0993 21.8256C24.0262 21.9115 23.9706 22.0111 23.936 22.1186C23.9013 22.226 23.8882 22.3393 23.8974 22.4518C23.9065 22.5643 23.9378 22.674 23.9894 22.7744L24.2106 23.2056C24.3149 23.4082 24.4952 23.5612 24.712 23.6312C24.9288 23.7011 25.1646 23.6823 25.3675 23.5788Z" fill="#FBC11B"/>
<path d="M20.1441 12.7484C20.1441 12.7484 21.1285 12.3921 21.9029 13.8771C22.5198 15.0603 24.0441 15.5046 24.0441 15.5046C24.0441 15.5046 22.4879 15.9115 21.1529 15.139C19.8198 14.3665 20.1441 12.7484 20.1441 12.7484Z" fill="#6D4C41"/>
</g>
<line x1="21" y1="46" x2="21" y2="158" stroke="white" stroke-width="2"/>
<defs>
<clipPath id="clip0_158_2970">
<rect width="24" height="24" fill="white" transform="translate(9 9)"/>
</clipPath>
</defs>
</svg>
