<svg width="21" height="21" viewBox="0 0 21 21" fill="none" xmlns="http://www.w3.org/2000/svg">
<path d="M17.5 0H3.5C2.57174 0 1.6815 0.276562 1.02513 0.768845C0.368749 1.26113 0 1.92881 0 2.625V18.375C0 19.0712 0.368749 19.7389 1.02513 20.2312C1.6815 20.7234 2.57174 21 3.5 21H17.5C18.4283 21 19.3185 20.7234 19.9749 20.2312C20.6313 19.7389 21 19.0712 21 18.375V2.625C21 1.92881 20.6313 1.26113 19.9749 0.768845C19.3185 0.276562 18.4283 0 17.5 0ZM7 9.84375H14C14.2321 9.84375 14.4546 9.91289 14.6187 10.036C14.7828 10.159 14.875 10.326 14.875 10.5C14.875 10.674 14.7828 10.841 14.6187 10.964C14.4546 11.0871 14.2321 11.1562 14 11.1562H7C6.76794 11.1562 6.54538 11.0871 6.38128 10.964C6.21719 10.841 6.125 10.674 6.125 10.5C6.125 10.326 6.21719 10.159 6.38128 10.036C6.54538 9.91289 6.76794 9.84375 7 9.84375Z" fill="#C7CEE0"/>
</svg>
