<svg width="18" height="18" viewBox="0 0 18 18" fill="none" xmlns="http://www.w3.org/2000/svg">
<path d="M16 4.41567C16.3055 4.57204 16.5591 4.79885 16.7349 5.07276C16.9107 5.34666 17.0022 5.65777 17 5.97407V11.8013C17 12.4485 16.6062 13.0453 15.9706 13.3597L9.97064 16.7757C9.67318 16.9227 9.33933 16.9997 8.99998 16.9997C8.66064 16.9997 8.32678 16.9227 8.02932 16.7757L2.02933 13.3597C1.71837 13.2067 1.45878 12.9814 1.2777 12.7073C1.09662 12.4331 1.00071 12.1202 1 11.8013V5.97327C1 5.32607 1.39378 4.73007 2.02933 4.41567L8.02932 1.23167C8.33557 1.0797 8.67959 1 9.02931 1C9.37903 1 9.72306 1.0797 10.0293 1.23167L16.0293 4.41567H16ZM7.22221 8.99967H9.88887H7.22221Z" fill="#17D1E0"/>
<path d="M7.22221 8.99967H9.88887M16 4.41567C16.3055 4.57204 16.5591 4.79885 16.7349 5.07276C16.9107 5.34666 17.0022 5.65777 17 5.97407V11.8013C17 12.4485 16.6062 13.0453 15.9706 13.3597L9.97065 16.7757C9.67318 16.9227 9.33933 16.9997 8.99998 16.9997C8.66064 16.9997 8.32678 16.9227 8.02932 16.7757L2.02933 13.3597C1.71837 13.2067 1.45878 12.9814 1.2777 12.7073C1.09662 12.4331 1.00071 12.1202 1 11.8013V5.97327C1 5.32607 1.39378 4.73007 2.02933 4.41567L8.02932 1.23167C8.33557 1.0797 8.67959 1 9.02931 1C9.37903 1 9.72306 1.0797 10.0293 1.23167L16.0293 4.41567H16Z" stroke="white" stroke-width="2" stroke-linecap="round" stroke-linejoin="round"/>
<path d="M9.88758 5.66797H6.33203V12.068" fill="#17D1E0"/>
<path d="M9.88758 5.66797H6.33203V12.068" stroke="white" stroke-width="2" stroke-linecap="round" stroke-linejoin="round"/>
</svg>
