<svg width="18" height="18" viewBox="0 0 18 18" fill="none" xmlns="http://www.w3.org/2000/svg">
<path d="M16 4.41573C16.3055 4.5721 16.5591 4.79892 16.7349 5.07283C16.9107 5.34674 17.0022 5.65786 17 5.97416V11.8015C17 12.4487 16.6062 13.0455 15.9706 13.3599L9.97064 16.776C9.67318 16.9229 9.33933 17 8.99998 17C8.66064 17 8.32678 16.9229 8.02932 16.776L2.02933 13.3599C1.71837 13.2069 1.45878 12.9816 1.2777 12.7075C1.09662 12.4333 1.00071 12.1204 1 11.8015V5.97336C1 5.32615 1.39378 4.73014 2.02933 4.41573L8.02932 1.23168C8.33557 1.0797 8.67959 1 9.02931 1C9.37903 1 9.72306 1.0797 10.0293 1.23168L16.0293 4.41573H16Z" fill="#17D1E0" stroke="white" stroke-width="2" stroke-linecap="round" stroke-linejoin="round"/>
<path d="M7 9H10C10.7956 9 11.5587 8.78929 12.1213 8.41421C12.6839 8.03914 13 7.53043 13 7C13 6.46957 12.6839 5.96086 12.1213 5.58579C11.5587 5.21071 10.7956 5 10 5H7V13" fill="#17D1E0"/>
<path d="M7 9H10C10.7956 9 11.5587 8.78929 12.1213 8.41421C12.6839 8.03914 13 7.53043 13 7C13 6.46957 12.6839 5.96086 12.1213 5.58579C11.5587 5.21071 10.7956 5 10 5H7V13" stroke="white" stroke-width="2" stroke-linecap="round" stroke-linejoin="round"/>
</svg>
