<svg width="32" height="40" viewBox="0 0 32 40" fill="none" xmlns="http://www.w3.org/2000/svg">
<path d="M10.0008 15.239C10.0215 13.7297 10.6602 12.2877 11.7808 11.2204C12.9014 10.153 14.4154 9.54466 16 9.52493C17.5846 9.54466 19.0986 10.153 20.2192 11.2204C21.3398 12.2877 21.9785 13.7297 21.9992 15.239C21.9785 16.7483 21.3398 18.1903 20.2192 19.2576C19.0986 20.325 17.5846 20.9333 16 20.9531C14.4154 20.9333 12.9014 20.325 11.7808 19.2576C10.6602 18.1903 10.0215 16.7483 10.0008 15.239ZM16 32.3812L23.9989 34.2859V28.4195C21.5866 29.8032 18.8157 30.5157 16 30.4765C13.1843 30.5157 10.4134 29.8032 8.00108 28.4195V34.2859M16 3.81085C14.4241 3.78346 12.8591 4.06334 11.401 4.63328C9.94285 5.20321 8.62253 6.05117 7.52115 7.12501C6.38153 8.1752 5.48097 9.4375 4.87548 10.8334C4.27 12.2293 3.97255 13.7289 4.00162 15.239C3.98079 16.7395 4.28225 18.2283 4.88749 19.6138C5.49272 20.9993 6.38896 22.2523 7.52115 23.2959C8.61739 24.38 9.93541 25.2386 11.3938 25.8184C12.8521 26.3983 14.4198 26.6872 16 26.6672C17.5802 26.6872 19.1479 26.3983 20.6062 25.8184C22.0646 25.2386 23.3826 24.38 24.4789 23.2959C25.611 22.2523 26.5073 20.9993 27.1125 19.6138C27.7178 18.2283 28.0192 16.7395 27.9984 15.239C28.0275 13.7289 27.73 12.2293 27.1245 10.8334C26.519 9.4375 25.6185 8.1752 24.4789 7.12501C23.3775 6.05117 22.0571 5.20321 20.599 4.63328C19.1409 4.06334 17.5758 3.78346 16 3.81085ZM31.9978 15.239C31.9553 17.0673 31.5692 18.8735 30.858 20.5721C30.2172 22.3005 29.2479 23.9017 27.9984 25.2958V40L16 36.1906L4.00162 40V25.2958C1.41335 22.5272 -0.0108309 18.9461 0.00216573 15.239C-0.0330792 13.2402 0.362191 11.2557 1.16357 9.40807C1.96496 7.56043 3.15544 5.88886 4.66153 4.49654C6.12874 3.04916 7.89182 1.90355 9.84196 1.13043C11.7921 0.357312 13.8879 -0.0269157 16 0.00146507C18.1121 -0.0269157 20.2079 0.357312 22.158 1.13043C24.1082 1.90355 25.8713 3.04916 27.3385 4.49654C28.8446 5.88886 30.035 7.56043 30.8364 9.40807C31.6378 11.2557 32.0331 13.2402 31.9978 15.239Z" fill="#44A987"/>
</svg>
