<svg width="32" height="20" viewBox="0 0 32 20" fill="none" xmlns="http://www.w3.org/2000/svg">
<path d="M32 0V7.5H28V4.28125L20.05 9.21875C20.6833 9.80208 21.1667 10.4221 21.5 11.0787C21.8333 11.7354 22 12.4175 22 13.125C22 15.0417 20.9333 16.6667 18.8 18C16.6667 19.3333 14.0667 20 11 20C7.93333 20 5.33333 19.3333 3.2 18C1.06667 16.6667 0 15.0417 0 13.125C0 11.2083 1.06667 9.58333 3.2 8.25C5.33333 6.91667 7.93333 6.25 11 6.25C12.1 6.25 13.1833 6.34875 14.25 6.54625C15.3167 6.74375 16.3 7.05125 17.2 7.46875L25.15 2.5H20V0H32ZM11 8.75C9.06667 8.75 7.41667 9.17708 6.05 10.0312C4.68333 10.8854 4 11.9167 4 13.125C4 14.3333 4.68333 15.3646 6.05 16.2188C7.41667 17.0729 9.06667 17.5 11 17.5C12.9333 17.5 14.5833 17.0729 15.95 16.2188C17.3167 15.3646 18 14.3333 18 13.125C18 11.9167 17.3167 10.8854 15.95 10.0312C14.5833 9.17708 12.9333 8.75 11 8.75Z" fill="white"/>
</svg>
