<svg width="112" height="60" viewBox="0 0 112 60" fill="none" xmlns="http://www.w3.org/2000/svg">
<path d="M7.46588 3.73331C7.46588 1.67146 5.79442 0 3.73257 0C1.67072 0 -0.000734473 1.67146 -0.000734473 3.73331V59.7329H7.46588V3.73331Z" fill="#F7F7F7"/>
<path d="M7.46588 15.6764C7.46588 13.6145 5.79442 11.943 3.73257 11.943C1.67072 11.943 -0.000734473 13.6145 -0.000734473 15.6764V59.7294H7.46588V15.6764Z" fill="#7244AE"/>
<path d="M24.8863 3.73331C24.8863 1.67146 23.2148 0 21.153 0C19.0911 0 17.4197 1.67146 17.4197 3.73331V59.7329H24.8863V3.73331Z" fill="#F7F7F7"/>
<path d="M24.8863 34.5931C24.8863 32.5312 23.2148 30.8598 21.153 30.8598C19.0911 30.8598 17.4197 32.5312 17.4197 34.5931V59.7307H24.8863V34.5931Z" fill="#3386FF"/>
<path d="M42.3106 3.73331C42.3106 1.67146 40.6391 0 38.5773 0C36.5154 0 34.844 1.67146 34.844 3.73331V59.7329H42.3106V3.73331Z" fill="#F7F7F7"/>
<path d="M42.3106 33.5968C42.3106 31.535 40.6391 29.8635 38.5773 29.8635C36.5154 29.8635 34.844 31.535 34.844 33.5968V59.73H42.3106V33.5968Z" fill="#7244AE"/>
<path d="M59.731 3.73331C59.731 1.67146 58.0595 0 55.9977 0C53.9358 0 52.2644 1.67146 52.2644 3.73331V59.7329H59.731V3.73331Z" fill="#F7F7F7"/>
<path d="M59.731 14.6841C59.731 12.6222 58.0595 10.9507 55.9977 10.9507C53.9358 10.9507 52.2644 12.6222 52.2644 14.6841V59.7326H59.731V14.6841Z" fill="#3386FF"/>
<path d="M77.1553 3.73331C77.1553 1.67146 75.4838 0 73.422 0C71.3601 0 69.6887 1.67146 69.6887 3.73331V59.7329H77.1553V3.73331Z" fill="#F7F7F7"/>
<path d="M77.1553 40.5666C77.1553 38.5047 75.4838 36.8332 73.422 36.8332C71.3601 36.8332 69.6887 38.5047 69.6887 40.5666V59.7309H77.1553V40.5666Z" fill="#7244AE"/>
<path d="M94.5757 3.73331C94.5757 1.67146 92.9042 0 90.8424 0C88.7805 0 87.1091 1.67146 87.1091 3.73331V59.7329H94.5757V3.73331Z" fill="#F7F7F7"/>
<path d="M94.5757 14.6841C94.5757 12.6222 92.9042 10.9507 90.8424 10.9507C88.7805 10.9507 87.1091 12.6222 87.1091 14.6841V59.7326H94.5757V14.6841Z" fill="#3386FF"/>
<path d="M112 3.73331C112 1.67146 110.329 0 108.267 0C106.205 0 104.533 1.67146 104.533 3.73331V59.7329H112V3.73331Z" fill="#F7F7F7"/>
<path d="M112 26.1309C112 24.0691 110.329 22.3976 108.267 22.3976C106.205 22.3976 104.533 24.0691 104.533 26.1309V59.7307H112V26.1309Z" fill="#7244AE"/>
</svg>
