<svg width="34" height="34" viewBox="0 0 34 34" fill="none" xmlns="http://www.w3.org/2000/svg">
<path d="M14.5636 21.0189C12.749 20.4909 11.1548 19.3882 10.0204 17.8767C8.88597 16.3651 8.27271 14.5262 8.27273 12.6364V1H25.7273V14.0909M8.27273 3.90909H1V9.72727C1 13.3767 3.60509 15.5455 6.81818 15.5455H8.27273M28.6858 15.3782C31.1702 14.8036 33 12.7862 33 9.72727V3.90909H25.7273M14.0909 27.1818H6.81818V33H23.5455M23.5455 33C21.038 33 18.6332 32.0039 16.8601 30.2308C15.087 28.4578 14.0909 26.053 14.0909 23.5455C14.0909 21.038 15.087 18.6332 16.8601 16.8601C18.6332 15.087 21.038 14.0909 23.5455 14.0909C26.053 14.0909 28.4578 15.087 30.2308 16.8601C32.0039 18.6332 33 21.038 33 23.5455C33 26.053 32.0039 28.4578 30.2308 30.2308C28.4578 32.0039 26.053 33 23.5455 33ZM28.6364 19.9091L22.0909 26.4545L18.4545 22.8182M14.3905 21.9804C13.4259 22.4644 12.6149 23.2073 12.0482 24.1259C11.4816 25.0444 11.1816 26.1025 11.1818 27.1818" stroke="#F73EF8" stroke-width="2"/>
</svg>
