<svg width="16" height="25" viewBox="0 0 16 25" fill="none" xmlns="http://www.w3.org/2000/svg">
<path d="M15.2904 0.654269C15.0656 0.446869 14.7986 0.282325 14.5046 0.170057C14.2106 0.0577884 13.8955 0 13.5773 0C13.259 0 12.9439 0.0577884 12.6499 0.170057C12.356 0.282325 12.089 0.446869 11.8642 0.654269L0.710628 10.9232C0.485362 11.1302 0.306644 11.376 0.184705 11.6467C0.0627664 11.9173 0 12.2075 0 12.5005C0 12.7935 0.0627664 13.0836 0.184705 13.3543C0.306644 13.6249 0.485362 13.8708 0.710628 14.0777L11.8642 24.3467C12.0891 24.5538 12.3562 24.7181 12.6501 24.8302C12.9441 24.9423 13.2591 25 13.5773 25C13.8954 25 14.2105 24.9423 14.5044 24.8302C14.7984 24.7181 15.0654 24.5538 15.2904 24.3467C15.5154 24.1395 15.6938 23.8937 15.8156 23.623C15.9373 23.3524 16 23.0623 16 22.7694C16 22.4765 15.9373 22.1864 15.8156 21.9158C15.6938 21.6452 15.5154 21.3993 15.2904 21.1922L5.86215 12.4893L15.2904 3.80878C16.2138 2.93626 16.2138 1.50442 15.2904 0.654269Z" fill="white"/>
</svg>
