<svg width="40" height="40" viewBox="0 0 40 40" fill="none" xmlns="http://www.w3.org/2000/svg">
<g id="minus">
<rect width="40" height="40" rx="8" fill="white"/>
<path id="Vector" d="M6.66667 0.5H33.3333C35.0081 0.5 36.5949 1.00009 37.7474 1.86447C38.8971 2.72678 39.5 3.86056 39.5 5V35C39.5 36.1394 38.8971 37.2732 37.7474 38.1355C36.5949 38.9999 35.0081 39.5 33.3333 39.5H6.66667C4.99186 39.5 3.40512 38.9999 2.25262 38.1355C1.10287 37.2732 0.5 36.1394 0.5 35V5C0.5 3.86056 1.10287 2.72678 2.25262 1.86447C3.40512 1.00009 4.99186 0.5 6.66667 0.5ZM26.6667 18.25H13.3333C12.798 18.25 12.2651 18.4084 11.8548 18.7161C11.4418 19.0259 11.1667 19.4818 11.1667 20C11.1667 20.5182 11.4418 20.9741 11.8548 21.2839C12.2651 21.5916 12.798 21.75 13.3333 21.75H26.6667C27.202 21.75 27.7349 21.5916 28.1452 21.2839C28.5582 20.9741 28.8333 20.5182 28.8333 20C28.8333 19.4818 28.5582 19.0259 28.1452 18.7161C27.7349 18.4084 27.202 18.25 26.6667 18.25Z" fill="#C7CEE0" stroke="white"/>
</g>
</svg>
