<svg width="26" height="26" viewBox="0 0 26 26" fill="none" xmlns="http://www.w3.org/2000/svg">
<path d="M13.0032 5.66817C13.0032 5.34817 13.0032 5.1895 13.1098 5.09083C13.2192 4.99217 13.3685 5.00417 13.6698 5.0295C15.013 5.14168 16.306 5.59141 17.4289 6.33692C18.5518 7.08243 19.4681 8.09956 20.0928 9.29388C20.7175 10.4882 21.0303 11.821 21.0022 13.1685C20.9741 14.5161 20.606 15.8347 19.9321 17.0019C19.2581 18.1692 18.3002 19.1472 17.1472 19.8453C15.9942 20.5433 14.6836 20.9387 13.3369 20.9948C11.9902 21.0509 10.6512 20.7658 9.44417 20.1661C8.23713 19.5663 7.20118 18.6713 6.43251 17.5642C6.25917 17.3162 6.17384 17.1922 6.20584 17.0495C6.23784 16.9068 6.37651 16.8282 6.65251 16.6682L12.6698 13.1935C12.8325 13.1002 12.9138 13.0535 12.9578 12.9762C13.0032 12.8988 13.0032 12.8042 13.0032 12.6162V5.66817Z" fill="#1F86FB"/>
<path d="M13 25C19.6274 25 25 19.6274 25 13C25 6.37258 19.6274 1 13 1C6.37258 1 1 6.37258 1 13C1 19.6274 6.37258 25 13 25Z" stroke="#1F86FB" stroke-width="2"/>
</svg>
