<svg width="16" height="24" viewBox="0 0 16 24" fill="none" xmlns="http://www.w3.org/2000/svg">
<path id="Vector" d="M15.2904 0.628098C15.0656 0.428994 14.7986 0.271032 14.5046 0.163254C14.2106 0.0554769 13.8955 0 13.5773 0C13.259 0 12.9439 0.0554769 12.6499 0.163254C12.356 0.271032 12.089 0.428994 11.8642 0.628098L0.710628 10.4863C0.485362 10.685 0.306644 10.921 0.184705 11.1808C0.0627664 11.4406 0 11.7192 0 12.0005C0 12.2817 0.0627664 12.5603 0.184705 12.8201C0.306644 13.0799 0.485362 13.3159 0.710628 13.5146L11.8642 23.3728C12.0891 23.5717 12.3562 23.7294 12.6501 23.837C12.9441 23.9446 13.2591 24 13.5773 24C13.8954 24 14.2105 23.9446 14.5044 23.837C14.7984 23.7294 15.0654 23.5717 15.2904 23.3728C15.5154 23.174 15.6938 22.9379 15.8156 22.6781C15.9373 22.4183 16 22.1399 16 21.8586C16 21.5774 15.9373 21.299 15.8156 21.0392C15.6938 20.7794 15.5154 20.5433 15.2904 20.3445L5.86215 11.9897L15.2904 3.65643C16.2138 2.81881 16.2138 1.44424 15.2904 0.628098Z" fill="white"/>
</svg>
