<svg width="97" height="97" viewBox="0 0 97 97" fill="none" xmlns="http://www.w3.org/2000/svg">
<path d="M77.0817 30.5473C80.6492 36.2542 82.4442 42.8908 82.2399 49.6178C82.0355 56.3448 79.8409 62.8602 75.9337 68.34C72.0264 73.8198 66.582 78.0179 60.2888 80.4035C53.9956 82.789 47.1364 83.2548 40.5785 81.742C34.0205 80.2292 28.0585 76.8057 23.4463 71.9045C18.834 67.0033 15.7787 60.8444 14.6668 54.2068C13.5548 47.5691 14.4361 40.7508 17.1992 34.614C19.9623 28.4773 24.4831 23.2976 30.19 19.7302" stroke="#A98BFB" stroke-opacity="0.25" stroke-width="12"/>
<path d="M26.3437 22.52C30.186 19.2947 34.6938 16.9589 39.5445 15.6798C44.3952 14.4007 49.4687 14.2099 54.4018 15.1211C59.3348 16.0322 64.0054 18.0228 68.0791 20.9503C72.1528 23.8778 75.5289 27.6698 77.9655 32.0548C80.4022 36.4398 81.8392 41.3093 82.1736 46.3146C82.5081 51.32 81.6289 55.9617 79.7973 60.6318C77.9657 65.302 75.227 69.8851 71.579 73.3286C67.931 76.772 83.8008 57.6292 79.2968 61.6327" stroke="#A98BFB" stroke-width="12" stroke-linecap="round"/>
<path d="M49.0434 44.3393C48.1902 44.3393 47.3719 43.9702 46.7686 43.3132C46.1653 42.6563 45.8263 41.7653 45.8263 40.8362C45.8263 39.9071 46.1653 39.0161 46.7686 38.3591C47.3719 37.7022 48.1902 37.3331 49.0434 37.3331C49.8967 37.3331 50.715 37.7022 51.3183 38.3591C51.9216 39.0161 52.2606 39.9071 52.2606 40.8362C52.2606 41.2962 52.1774 41.7517 52.0157 42.1768C51.854 42.6018 51.617 42.988 51.3183 43.3132C51.0196 43.6385 50.6649 43.8966 50.2746 44.0726C49.8843 44.2487 49.4659 44.3393 49.0434 44.3393ZM49.0434 31.0275C46.6544 31.0275 44.3632 32.0609 42.6738 33.9004C40.9845 35.7399 40.0355 38.2348 40.0355 40.8362C40.0355 48.1927 49.0434 59.0523 49.0434 59.0523C49.0434 59.0523 58.0514 48.1927 58.0514 40.8362C58.0514 38.2348 57.1024 35.7399 55.4131 33.9004C53.7237 32.0609 51.4325 31.0275 49.0434 31.0275Z" fill="#A98BFB"/>
</svg>
