<svg width="40" height="40" viewBox="0 0 40 40" fill="none" xmlns="http://www.w3.org/2000/svg">
<path d="M20.2798 0.00185829C9.03221 -0.150058 -0.150058 9.03221 0.00185829 20.2798C0.151851 31.0668 8.9351 39.85 19.7221 40C30.9716 40.1539 40.1519 30.9716 39.9981 19.724C39.85 8.9351 31.0668 0.151851 20.2798 0.00185829ZM18.6654 18.5077L23.6219 12.8349C23.8904 12.5276 24.27 12.3396 24.6772 12.3122C25.0843 12.2848 25.4857 12.4203 25.793 12.6888C26.1003 12.9573 26.2883 13.3369 26.3157 13.744C26.3431 14.1512 26.2076 14.5525 25.9391 14.8598L20.9826 20.5326C20.8497 20.6848 20.688 20.8093 20.507 20.899C20.3259 20.9886 20.129 21.0418 19.9274 21.0554C19.7258 21.0689 19.5235 21.0427 19.332 20.978C19.1406 20.9134 18.9637 20.8117 18.8116 20.6788C18.6594 20.5458 18.5349 20.3842 18.4453 20.2031C18.3556 20.0221 18.3024 19.8251 18.2889 19.6235C18.2753 19.4219 18.3016 19.2196 18.3662 19.0282C18.4308 18.8367 18.5325 18.6599 18.6654 18.5077ZM14.9291 27.2429C14.6406 27.5312 14.2494 27.6931 13.8416 27.6931C13.4338 27.6931 13.0426 27.5312 12.7542 27.2429L8.14379 22.6277C8.00098 22.4848 7.88773 22.3151 7.81049 22.1284C7.73325 21.9417 7.69355 21.7417 7.69364 21.5396C7.69373 21.3376 7.73361 21.1375 7.81101 20.9509C7.88842 20.7642 8.00182 20.5947 8.14475 20.4519C8.28768 20.3091 8.45735 20.1958 8.64405 20.1186C8.83075 20.0413 9.03083 20.0016 9.23288 20.0017C9.43493 20.0018 9.63498 20.0417 9.82161 20.1191C10.0082 20.1965 10.1778 20.3099 10.3206 20.4528L14.9358 25.068C15.2232 25.3574 15.3839 25.749 15.3827 26.1569C15.3814 26.5647 15.2182 26.9553 14.9291 27.2429ZM31.9283 14.8598L21.1711 27.167C21.0325 27.3258 20.8627 27.4544 20.6724 27.5449C20.482 27.6353 20.2751 27.6857 20.0644 27.6929H20.0125C19.8103 27.6929 19.6101 27.6531 19.4234 27.5757C19.2366 27.4984 19.067 27.3849 18.9241 27.2419L14.3147 22.6268C14.0263 22.3381 13.8643 21.9467 13.8645 21.5386C13.8647 21.1306 14.027 20.7393 14.3156 20.4509C14.6043 20.1625 14.9957 20.0006 15.4038 20.0008C15.8118 20.0009 16.2031 20.1632 16.4915 20.4519L19.3567 23.32C19.4312 23.3945 19.5202 23.4529 19.6182 23.4916C19.7162 23.5303 19.8211 23.5485 19.9264 23.545C20.0317 23.5414 20.1351 23.5163 20.2303 23.4712C20.3255 23.426 20.4104 23.3618 20.4798 23.2825L29.614 12.8349C29.8825 12.5276 30.2621 12.3396 30.6692 12.3122C31.0764 12.2848 31.4777 12.4203 31.785 12.6888C32.0923 12.9573 32.2803 13.3369 32.3077 13.744C32.3351 14.1512 32.1997 14.5525 31.9312 14.8598H31.9283Z" fill="#282B4C"/>
</svg>
