<svg width="52" height="52" viewBox="0 0 52 52" fill="none" xmlns="http://www.w3.org/2000/svg">
<path d="M50 38.9231V46.3077C50 47.287 49.611 48.2261 48.9185 48.9185C48.2261 49.611 47.287 50 46.3077 50H38.9231M38.9231 2H46.3077C47.287 2 48.2261 2.38901 48.9185 3.08145C49.611 3.77389 50 4.71305 50 5.69231V13.0769M2 13.0769V5.69231C2 4.71305 2.38901 3.77389 3.08145 3.08145C3.77389 2.38901 4.71305 2 5.69231 2H13.0769M13.0769 50H5.69231C4.71305 50 3.77389 49.611 3.08145 48.9185C2.38901 48.2261 2 47.287 2 46.3077V38.9231M26 24.1538C27.9585 24.1538 29.8368 23.3758 31.2217 21.9909C32.6066 20.6061 33.3846 18.7278 33.3846 16.7692C33.3846 14.8107 32.6066 12.9324 31.2217 11.5475C29.8368 10.1626 27.9585 9.38462 26 9.38462C24.0415 9.38462 22.1632 10.1626 20.7783 11.5475C19.3934 12.9324 18.6154 14.8107 18.6154 16.7692C18.6154 18.7278 19.3934 20.6061 20.7783 21.9909C22.1632 23.3758 24.0415 24.1538 26 24.1538ZM40.0418 40.7692C39.0875 37.7951 37.2135 35.2008 34.6899 33.3603C32.1663 31.5198 29.1235 30.528 26 30.528C22.8765 30.528 19.8337 31.5198 17.3101 33.3603C14.7865 35.2008 12.9125 37.7951 11.9582 40.7692H40.0418Z" stroke="#17D1E0" stroke-width="4" stroke-linecap="round" stroke-linejoin="round"/>
</svg>
