<svg width="41" height="81" viewBox="0 0 41 81" fill="none" xmlns="http://www.w3.org/2000/svg">
<path d="M17.8557 26.2288L17.6193 27.1548L14.0919 40.9737L14.0919 40.9738C13.9436 41.5545 13.8964 42.1868 13.9567 42.8077C14.0171 43.4289 14.1822 44.0069 14.4282 44.4869L14.4282 44.487L19.6946 54.7639L19.6948 54.7634L20.2198 55.788L23.2794 61.7592L23.3262 61.8504L23.3333 61.9526L24.3647 76.8067L24.3651 76.8121C24.3935 77.2968 24.4858 77.7644 24.6341 78.187C24.7825 78.6101 24.9818 78.9734 25.2138 79.2604C25.4457 79.5473 25.7008 79.7464 25.9572 79.8624C26.2112 79.9773 26.4685 80.012 26.7197 79.9728C26.9725 79.9333 27.2324 79.8168 27.4826 79.6116C27.7339 79.4055 27.9677 79.1159 28.1625 78.75C28.3571 78.3845 28.505 77.957 28.5933 77.4912C28.6815 77.0258 28.7074 76.5368 28.6687 76.054L28.6682 76.0486L27.5596 60.07C27.5117 59.3933 27.3417 58.7605 27.076 58.2397C27.0759 58.2397 27.0759 58.2397 27.0759 58.2397L22.039 48.4123L21.9417 48.2225L22.0114 48.0209L25.6535 37.4833L26.0182 36.4281L26.5626 37.4028C27.6591 39.3663 28.9115 40.6741 30.4331 40.9516C31.8795 41.2143 33.2586 40.4674 34.4611 39.67L34.4614 39.6697C35.0166 39.3023 35.6102 38.8678 36.2131 38.4265L36.2543 38.3964L36.2544 38.3962L36.4267 38.2701C36.4271 38.2698 36.4275 38.2694 36.4279 38.2691C37.1611 37.7259 37.901 37.203 38.6474 36.7007C39.1599 36.3546 39.6076 35.6793 39.8384 34.7728C40.0678 33.8718 40.0494 32.8672 39.789 31.989C39.5269 31.1048 39.059 30.4746 38.5442 30.1757C38.0551 29.8918 37.5283 29.9057 37.0386 30.2271C36.2464 30.7602 35.4606 31.315 34.6817 31.8915L34.6791 31.8933L34.5261 32.0051L17.8557 26.2288ZM17.8557 26.2288L16.9602 26.5626C15.2034 27.2175 13.9971 28.2083 13.0317 29.4264L13.0314 29.4267C11.6042 31.2304 10.4719 33.8037 8.97708 37.7285C8.65826 38.5649 8.15708 39.106 7.6421 39.3165C7.15361 39.5162 6.62153 39.4323 6.13301 39.0136C5.62882 38.5815 5.222 37.8275 5.05064 36.8849C4.88008 35.9467 4.96691 34.948 5.28335 34.1177C6.7774 30.1994 8.26106 26.6112 10.3826 23.9344L10.3828 23.9341C12.5738 21.1652 15.2414 19.605 18.8717 18.9992M17.8557 26.2288L18.8717 18.9992M18.8717 18.9992C20.3705 18.7507 21.9489 18.8111 23.4196 19.7945C24.9811 20.8412 26.1724 22.753 27.0011 25.4227L27.0011 25.4228C28.1403 29.0895 28.998 31.3088 29.699 32.6187L29.6998 32.6201C30.0386 33.2485 30.2947 33.5789 30.4746 33.7542L30.4747 33.7542C30.5451 33.8228 30.6143 33.8786 30.6862 33.9204C30.7236 33.9421 30.761 33.9596 30.7989 33.9732C30.8359 33.9865 30.8698 33.9943 30.865 33.993L30.8829 33.9975L30.9011 34.0007C31.081 34.0317 31.3005 34.0023 31.5923 33.8909C31.8865 33.7786 32.2909 33.5688 32.8593 33.1909C33.3516 32.8638 33.8863 32.4729 34.5259 32.0052L18.8717 18.9992ZM33.0061 15.5626C31.9455 17.153 30.5592 17.9739 29.1817 17.9739C27.8042 17.9739 26.4179 17.153 25.3573 15.5626C24.2966 13.9719 23.6849 11.7852 23.6849 9.4811C23.6849 7.17699 24.2966 4.9903 25.3573 3.39962C26.4179 1.80922 27.8042 0.988281 29.1817 0.988281C30.5592 0.988281 31.9455 1.80922 33.0061 3.39962C34.0668 4.9903 34.6785 7.17699 34.6785 9.4811C34.6785 11.7852 34.0668 13.9719 33.0061 15.5626Z" fill="#F4F4FC" stroke="#17D1E0"/>
<path d="M11.6262 58.4988L13.2665 51.8814L16.4047 58.0063L14.9506 63.8756C14.7657 64.6207 14.4309 65.2228 14.0253 65.6106C13.6248 65.9934 13.1907 66.1378 12.7859 66.0895L12.7858 66.0895L3.047 64.9304L3.04701 64.9303L3.03765 64.9294C2.78609 64.9042 2.52693 64.8034 2.27537 64.6154C2.02249 64.4263 1.78385 64.1534 1.58134 63.8017C1.37904 63.4504 1.22084 63.0342 1.12076 62.5758C1.02076 62.1176 0.981986 61.6318 1.00773 61.1477C1.03348 60.6636 1.123 60.1956 1.26862 59.7715C1.41439 59.347 1.61131 58.9812 1.84147 58.6909C2.07161 58.4006 2.32554 58.1974 2.58153 58.0773C2.83513 57.9582 3.09206 57.9196 3.34271 57.9545L3.3427 57.9546L3.35262 57.9558L11.0818 58.875L11.52 58.9271L11.6262 58.4988Z" fill="#F4F4FC" stroke="#17D1E0"/>
</svg>
