<svg width="24" height="24" viewBox="0 0 24 24" fill="none" xmlns="http://www.w3.org/2000/svg">
<path d="M23.7666 9.6498H22.8V9.6H12V14.4H18.7818C17.7924 17.1942 15.1338 19.2 12 19.2C8.0238 19.2 4.8 15.9762 4.8 12C4.8 8.0238 8.0238 4.8 12 4.8C13.8354 4.8 15.5052 5.4924 16.7766 6.6234L20.1708 3.2292C18.0276 1.2318 15.1608 0 12 0C5.373 0 0 5.373 0 12C0 18.627 5.373 24 12 24C18.627 24 24 18.627 24 12C24 11.1954 23.9172 10.41 23.7666 9.6498Z" fill="#FFC107"/>
<path d="M1.38281 6.4146L5.32541 9.306C6.39221 6.6648 8.97581 4.8 11.9992 4.8C13.8346 4.8 15.5044 5.4924 16.7758 6.6234L20.17 3.2292C18.0268 1.2318 15.16 0 11.9992 0C7.39001 0 3.39281 2.6022 1.38281 6.4146Z" fill="#FF3D00"/>
<path d="M11.9994 24.0012C15.099 24.0012 17.9154 22.815 20.0448 20.886L16.3308 17.7432C15.0855 18.6902 13.5639 19.2024 11.9994 19.2012C8.8782 19.2012 6.228 17.211 5.2296 14.4336L1.31641 17.4486C3.30241 21.3348 7.3356 24.0012 11.9994 24.0012Z" fill="#4CAF50"/>
<path d="M23.7666 9.65136H22.8V9.60156H12V14.4016H18.7818C18.3085 15.7314 17.456 16.8935 16.3296 17.7442L16.3314 17.743L20.0454 20.8858C19.7826 21.1246 24 18.0016 24 12.0016C24 11.197 23.9172 10.4116 23.7666 9.65136Z" fill="#1976D2"/>
</svg>
