<svg width="32" height="32" viewBox="0 0 32 32" fill="none" xmlns="http://www.w3.org/2000/svg">
<path d="M16.12 21.56C15.3467 21.5867 14.6069 21.4603 13.9008 21.1808C13.1947 20.9013 12.5744 20.4944 12.04 19.96C11.5067 19.4267 11.0997 18.8267 10.8192 18.16C10.5387 17.4933 10.3989 16.7867 10.4 16.04C10.4 15.7733 10.4133 15.5131 10.44 15.2592C10.4667 15.0053 10.52 14.7589 10.6 14.52C10.7067 14.2 10.6997 13.88 10.5792 13.56C10.4587 13.24 10.2523 13.0133 9.96 12.88C9.64 12.7467 9.3264 12.7467 9.0192 12.88C8.712 13.0133 8.5056 13.24 8.4 13.56C8.26667 13.96 8.1664 14.36 8.0992 14.76C8.032 15.16 7.99893 15.5733 8 16C8 17.0667 8.20693 18.0869 8.6208 19.0608C9.03467 20.0347 9.6144 20.8944 10.36 21.64C11.08 22.3867 11.9269 22.96 12.9008 23.36C13.8747 23.76 14.8811 23.9733 15.92 24L15.24 24.68C15 24.92 14.88 25.2 14.88 25.52C14.88 25.84 15 26.12 15.24 26.36C15.48 26.6 15.76 26.72 16.08 26.72C16.4 26.72 16.68 26.6 16.92 26.36L19.48 23.8C19.8 23.48 19.96 23.1067 19.96 22.68C19.96 22.2533 19.8 21.88 19.48 21.56L16.92 19C16.68 18.76 16.4 18.64 16.08 18.64C15.76 18.64 15.48 18.76 15.24 19C15 19.24 14.88 19.52 14.88 19.84C14.88 20.16 15 20.44 15.24 20.68L16.12 21.56ZM15.84 10.4C16.6133 10.4 17.36 10.5403 18.08 10.8208C18.8 11.1013 19.4267 11.5077 19.96 12.04C20.4933 12.5733 20.9003 13.1733 21.1808 13.84C21.4613 14.5067 21.6011 15.2133 21.6 15.96C21.6 16.2267 21.5867 16.4864 21.56 16.7392C21.5333 16.992 21.48 17.2389 21.4 17.48C21.2933 17.8 21.3003 18.1264 21.4208 18.4592C21.5413 18.792 21.7477 19.0256 22.04 19.16C22.36 19.2933 22.6736 19.2933 22.9808 19.16C23.288 19.0267 23.4944 18.8 23.6 18.48C23.7333 18.08 23.8336 17.6731 23.9008 17.2592C23.968 16.8453 24.0011 16.4256 24 16C24 14.9333 23.8064 13.9131 23.4192 12.9392C23.032 11.9653 22.4523 11.0923 21.68 10.32C20.9333 9.57333 20.0731 9.00693 19.0992 8.6208C18.1253 8.23467 17.1189 8.04107 16.08 8.04L16.8 7.32C17.0133 7.08 17.12 6.8 17.12 6.48C17.12 6.16 17 5.88 16.76 5.64C16.52 5.4 16.24 5.28 15.92 5.28C15.6 5.28 15.32 5.4 15.08 5.64L12.52 8.2C12.2 8.52 12.04 8.89333 12.04 9.32C12.04 9.74667 12.2 10.12 12.52 10.44L15.08 13C15.32 13.24 15.6 13.36 15.92 13.36C16.24 13.36 16.52 13.24 16.76 13C17 12.76 17.12 12.48 17.12 12.16C17.12 11.84 17 11.56 16.76 11.32L15.84 10.4ZM16 32C13.7867 32 11.7067 31.5797 9.76 30.7392C7.81333 29.8987 6.12 28.7589 4.68 27.32C3.24 25.88 2.10027 24.1867 1.2608 22.24C0.421333 20.2933 0.00106667 18.2133 0 16C0 13.7867 0.420267 11.7067 1.2608 9.76C2.10133 7.81333 3.24107 6.12 4.68 4.68C6.12 3.24 7.81333 2.10027 9.76 1.2608C11.7067 0.421333 13.7867 0.00106667 16 0C18.2133 0 20.2933 0.420267 22.24 1.2608C24.1867 2.10133 25.88 3.24107 27.32 4.68C28.76 6.12 29.9003 7.81333 30.7408 9.76C31.5813 11.7067 32.0011 13.7867 32 16C32 18.2133 31.5797 20.2933 30.7392 22.24C29.8987 24.1867 28.7589 25.88 27.32 27.32C25.88 28.76 24.1867 29.9003 22.24 30.7408C20.2933 31.5813 18.2133 32.0011 16 32Z" fill="#F19A39"/>
</svg>
