<svg width="32" height="32" viewBox="0 0 32 32" fill="none" xmlns="http://www.w3.org/2000/svg">
<rect width="32" height="32" rx="4" fill="#17D1E0"/>
<path d="M19.3892 25.5992C20.0219 24.9883 20.0396 23.9801 19.4287 23.3474C18.8178 22.7147 17.8096 22.697 17.1769 23.3079C16.5442 23.9188 16.5265 24.927 17.1374 25.5597C17.7483 26.1924 18.7565 26.2101 19.3892 25.5992Z" fill="#E5B35A"/>
<path d="M19.8298 24.0866L16.8023 25.0491L14.0898 18.9541L17.8398 17.6016L19.8298 24.0866Z" fill="#E5B35A"/>
<path d="M24.5697 25.0531L23.7722 27.7231L17.8047 25.9706L18.7397 23.0156L24.5697 25.0531Z" fill="#E5B35A"/>
<path d="M25.9993 26.3776L25.2993 28.7026C25.2673 28.81 25.2143 28.91 25.1435 28.9968C25.0727 29.0836 24.9854 29.1556 24.8866 29.2086C24.7879 29.2616 24.6796 29.2945 24.5681 29.3055C24.4566 29.3165 24.344 29.3053 24.2368 29.2726L24.1968 29.2601C24.0894 29.2281 23.9895 29.1751 23.9026 29.1043C23.8158 29.0335 23.7438 28.9462 23.6908 28.8474C23.6378 28.7487 23.6049 28.6404 23.5939 28.5289C23.583 28.4174 23.5941 28.3048 23.6268 28.1976L24.3268 25.8726C24.3589 25.7652 24.4118 25.6652 24.4826 25.5784C24.5535 25.4916 24.6408 25.4196 24.7395 25.3666C24.8383 25.3136 24.9465 25.2807 25.058 25.2697C25.1695 25.2587 25.2821 25.2699 25.3893 25.3026L25.4293 25.3151C25.8818 25.4501 26.1368 25.9251 25.9993 26.3776Z" fill="#4568AD"/>
<path d="M24.1328 29.2405L25.3258 25.2812L26.4581 25.6222L25.2651 29.5815L24.1328 29.2405Z" fill="#4568AD"/>
<path d="M24.1602 26.42L24.5727 25.0508L25.4919 25.3278L25.0794 26.697L24.1602 26.42Z" fill="#4568AD"/>
<path d="M8.50481 31.3861L6.3923 30.1861C6.29495 30.1307 6.20945 30.0568 6.14068 29.9684C6.07191 29.8801 6.02122 29.779 5.99151 29.6711C5.96179 29.5631 5.95363 29.4504 5.9675 29.3393C5.98136 29.2282 6.01697 29.1209 6.07231 29.0236L6.09231 28.9861C6.14762 28.8887 6.22156 28.8032 6.30992 28.7344C6.39828 28.6657 6.49932 28.615 6.60727 28.5853C6.71522 28.5555 6.82797 28.5474 6.93908 28.5612C7.05018 28.5751 7.15747 28.6107 7.25481 28.6661L9.36731 29.8661C9.46466 29.9214 9.55016 29.9953 9.61893 30.0837C9.6877 30.172 9.73839 30.2731 9.7681 30.381C9.79782 30.489 9.80598 30.6017 9.79211 30.7128C9.77825 30.8239 9.74264 30.9312 9.68731 31.0286L9.6673 31.0661C9.55541 31.2625 9.37017 31.4065 9.15223 31.4665C8.93429 31.5264 8.70145 31.4975 8.50481 31.3861Z" fill="#4568AD"/>
<path d="M6.12747 28.9258L9.72197 30.9693L9.13747 31.9973L5.54297 29.9538L6.12747 28.9258Z" fill="#4568AD"/>
<path d="M8.87294 29.5781L10.1159 30.2849L9.64144 31.1194L8.39844 30.4126L8.87294 29.5781Z" fill="#4568AD"/>
<path d="M13.6966 24.5603C13.9254 23.711 13.4224 22.8371 12.5731 22.6084C11.7239 22.3796 10.85 22.8826 10.6212 23.7318C10.3925 24.5811 10.8955 25.455 11.7447 25.6837C12.594 25.9125 13.4679 25.4095 13.6966 24.5603Z" fill="#F4D598"/>
<path d="M13.2706 25.2866L10.8906 23.1841L14.7231 17.7266L17.8131 20.2491L13.2706 25.2866Z" fill="#F4D598"/>
<path d="M10.0969 30.317L7.67188 28.9445L10.7544 23.3945L13.4269 24.9645L10.0969 30.317Z" fill="#F4D598"/>
<path d="M16.2698 20.9811C17.3703 20.9811 18.2623 20.089 18.2623 18.9886C18.2623 17.8882 17.3703 16.9961 16.2698 16.9961C15.1694 16.9961 14.2773 17.8882 14.2773 18.9886C14.2773 20.089 15.1694 20.9811 16.2698 20.9811Z" fill="#F4D598"/>
<path d="M11.719 16.9231L10.2695 15.8473L12.446 12.9141L13.8955 13.9896L11.719 16.9231Z" fill="#FBC11B"/>
<path d="M11.1684 17.2805C11.664 17.1819 11.9859 16.7002 11.8874 16.2046C11.7888 15.709 11.3071 15.3871 10.8115 15.4856C10.3159 15.5842 9.99396 16.0659 10.0925 16.5615C10.1911 17.0571 10.6727 17.379 11.1684 17.2805Z" fill="#FBC11B"/>
<path d="M11.3516 13.6417L13.6566 15.2892L15.3616 12.9042C15.5742 12.606 15.6599 12.2356 15.5999 11.8743C15.5399 11.513 15.3391 11.1902 15.0416 10.9767L14.9841 10.9367C14.6858 10.7241 14.3155 10.6384 13.9542 10.6984C13.5929 10.7584 13.2701 10.9591 13.0566 11.2567L11.3516 13.6417Z" fill="#3615AF"/>
<path d="M8.05119 17.5988L7.86719 15.8033L10.9437 15.4883L11.1277 17.2838L8.05119 17.5988Z" fill="#FBC11B"/>
<path d="M5.89245 16.8633L5.89745 16.9208C5.91215 17.0705 5.95622 17.2159 6.02714 17.3486C6.09806 17.4813 6.19443 17.5987 6.31075 17.6941C6.42708 17.7895 6.56106 17.8611 6.70506 17.9047C6.84905 17.9483 7.00023 17.9631 7.14995 17.9483L7.79495 17.8833C7.94468 17.8686 8.09005 17.8245 8.22274 17.7536C8.35543 17.6827 8.47285 17.5863 8.56827 17.47C8.6637 17.3537 8.73526 17.2197 8.77887 17.0757C8.82249 16.9317 8.8373 16.7805 8.82245 16.6308L8.81745 16.5733C8.80274 16.4235 8.75867 16.2782 8.68775 16.1455C8.61684 16.0128 8.52046 15.8954 8.40414 15.8C8.28782 15.7045 8.15383 15.633 8.00984 15.5894C7.86585 15.5457 7.71467 15.5309 7.56495 15.5458L6.91995 15.6108C6.77014 15.6253 6.62467 15.6692 6.49188 15.7401C6.3591 15.811 6.2416 15.9073 6.14614 16.0237C6.05068 16.1401 5.97913 16.2741 5.9356 16.4182C5.89206 16.5623 5.8774 16.7135 5.89245 16.8633ZM14.4449 7.73078L15.0924 10.2708L13.2149 10.9958L11.2549 6.17578L14.4449 7.73078Z" fill="#FBC11B"/>
<path d="M14.2999 5.15618L14.8074 9.49618L11.9774 9.84868C10.6624 10.0137 9.47736 9.04368 9.37736 7.72118L9.25736 6.11868C9.14486 4.63868 10.3374 3.38368 11.8199 3.41868L12.4099 3.43368C13.3824 3.45868 14.1874 4.19118 14.2999 5.15618Z" fill="#FBC11B"/>
<path d="M14.7478 8.08671L13.3978 8.00671L13.2203 7.08671C13.1912 6.93446 13.121 6.79304 13.0175 6.67764C12.914 6.56224 12.781 6.47722 12.6328 6.43171L12.4378 7.49171C12.1253 7.47171 11.8428 7.29171 11.6953 7.01421L11.4028 6.46171C11.3403 6.34382 11.2505 6.2426 11.1409 6.1665C11.0314 6.09039 10.9051 6.0416 10.7728 6.02421L9.25785 5.82671C9.25785 5.82671 9.03035 3.77671 11.0253 3.29171C11.3703 3.20921 11.7128 3.14671 12.0428 3.09921C13.5778 2.88421 14.9453 4.08421 14.9403 5.63421C14.9337 6.45521 14.8694 7.27472 14.7478 8.08671Z" fill="#6D4C41"/>
<path d="M10.4235 6.99721C10.4435 7.18971 10.3285 7.35971 10.1685 7.37471C10.0085 7.38971 9.86351 7.24721 9.84601 7.05471C9.82601 6.86221 9.94101 6.69221 10.101 6.67721C10.261 6.65971 10.4035 6.80471 10.4235 6.99721Z" fill="#C07B47"/>
<path d="M17.5096 18.7788L14.3996 19.5163C13.8046 19.6563 13.2096 19.2888 13.0671 18.6963L12.3021 12.9538C12.1996 12.0163 12.1221 10.4263 13.3646 10.1338L14.4396 9.8788C15.5096 9.6263 16.2546 10.7838 16.5671 11.8863L18.3321 17.4463C18.3997 17.7321 18.351 18.033 18.1968 18.2828C18.0425 18.5327 17.7954 18.7111 17.5096 18.7788Z" fill="#651FFF"/>
<path d="M19.9259 13.9824L19.0251 15.5469L15.8594 13.7244L16.7599 12.1602L19.9259 13.9824Z" fill="#FBC11B"/>
<path d="M19.753 15.6404C20.2339 15.4852 20.498 14.9696 20.3429 14.4886C20.1877 14.0077 19.6721 13.7436 19.1911 13.8988C18.7102 14.0539 18.4461 14.5696 18.6012 15.0505C18.7564 15.5314 19.272 15.7955 19.753 15.6404Z" fill="#FBC11B"/>
<path d="M16.7083 14.7249L18.0758 12.2449L15.5108 10.8274C15.1898 10.6509 14.8119 10.609 14.46 10.7106C14.108 10.8123 13.8108 11.0494 13.6333 11.3699L13.6008 11.4299C13.4244 11.7509 13.3824 12.1288 13.4841 12.4808C13.5858 12.8327 13.8228 13.13 14.1433 13.3074L16.7083 14.7249Z" fill="#3615AF"/>
<path d="M21.7241 17.1633L20.1194 17.9901L18.7031 15.2408L20.3079 14.4141L21.7241 17.1633Z" fill="#FBC11B"/>
<path d="M21.8234 19.4384L21.8734 19.4134C22.0074 19.3449 22.1267 19.2506 22.2243 19.136C22.3219 19.0213 22.3959 18.8886 22.4421 18.7453C22.4883 18.602 22.5058 18.451 22.4936 18.301C22.4813 18.1509 22.4396 18.0048 22.3709 17.8709L22.0759 17.2959C22.0074 17.1618 21.9131 17.0426 21.7985 16.945C21.6838 16.8474 21.5511 16.7734 21.4078 16.7271C21.2645 16.6809 21.1135 16.6634 20.9635 16.6757C20.8134 16.6879 20.6673 16.7296 20.5334 16.7984L20.4834 16.8234C20.3493 16.8918 20.2301 16.9861 20.1325 17.1007C20.0349 17.2154 19.9609 17.3481 19.9146 17.4914C19.8684 17.6347 19.8509 17.7857 19.8632 17.9357C19.8754 18.0858 19.9171 18.2319 19.9859 18.3659L20.2809 18.9409C20.4199 19.211 20.6603 19.415 20.9494 19.5082C21.2385 19.6014 21.5527 19.5763 21.8234 19.4384Z" fill="#FBC11B"/>
<path d="M14.8588 4.99915C14.8588 4.99915 16.1713 4.52415 17.2038 6.50415C18.0263 8.08165 20.0588 8.67415 20.0588 8.67415C20.0588 8.67415 17.9838 9.21665 16.2038 8.18665C14.4263 7.15665 14.8588 4.99915 14.8588 4.99915Z" fill="#6D4C41"/>
</svg>
