<svg width="20" height="20" viewBox="0 0 20 20" fill="none" xmlns="http://www.w3.org/2000/svg">
<path d="M8.90217 18.2064L8.90147 18.2057C6.31712 15.6515 4.21033 13.5684 2.74366 11.6141C1.28368 9.66858 0.5 7.90381 0.5 5.99455C0.5 2.87235 2.7358 0.5 5.5 0.5C7.07181 0.5 8.60161 1.30024 9.606 2.58577L10 3.09005L10.394 2.58577C11.3984 1.30024 12.9282 0.5 14.5 0.5C17.2642 0.5 19.5 2.87235 19.5 5.99455C19.5 7.90381 18.7163 9.66861 17.2562 11.6155C15.7922 13.5677 13.6906 15.6493 11.1128 18.2024L11.0992 18.2159L11.0981 18.217L10.0013 19.297L8.90217 18.2064Z" fill="#282B4C" stroke="#F4F4FC"/>
</svg>
