<svg width="118" height="42" viewBox="0 0 118 42" fill="none" xmlns="http://www.w3.org/2000/svg">
<rect y="10.5" width="21" height="21" rx="4.2" fill="white"/>
<path d="M17.5 10.5H3.5C2.57174 10.5 1.6815 10.7766 1.02513 11.2688C0.368749 11.7611 0 12.4288 0 13.125V28.875C0 29.5712 0.368749 30.2389 1.02513 30.7312C1.6815 31.2234 2.57174 31.5 3.5 31.5H17.5C18.4283 31.5 19.3185 31.2234 19.9749 30.7312C20.6313 30.2389 21 29.5712 21 28.875V13.125C21 12.4288 20.6313 11.7611 19.9749 11.2688C19.3185 10.7766 18.4283 10.5 17.5 10.5ZM7 20.3438H14C14.2321 20.3438 14.4546 20.4129 14.6187 20.536C14.7828 20.659 14.875 20.826 14.875 21C14.875 21.174 14.7828 21.341 14.6187 21.464C14.4546 21.5871 14.2321 21.6562 14 21.6562H7C6.76794 21.6562 6.54538 21.5871 6.38128 21.464C6.21719 21.341 6.125 21.174 6.125 21C6.125 20.826 6.21719 20.659 6.38128 20.536C6.54538 20.4129 6.76794 20.3438 7 20.3438Z" fill="#C7CEE0"/>
<g clip-path="url(#clip0_0_198)">
<rect x="37.8008" width="42" height="42" rx="10.5" fill="white"/>
<path fill-rule="evenodd" clip-rule="evenodd" d="M66.6365 6.30078C67.0111 6.30075 67.3815 6.3879 67.7235 6.55654C68.0655 6.72518 68.3714 6.97152 68.6213 7.27948C68.8712 7.58744 69.0595 7.95009 69.1738 8.34377C69.288 8.73745 69.3258 9.1533 69.2846 9.56418L66.9162 33.0842C66.8441 33.8036 66.534 34.4683 66.0454 34.9511C65.5568 35.4339 64.924 35.7008 64.2681 35.7008H53.3321C52.6762 35.7008 52.0434 35.4339 51.5548 34.9511C51.0662 34.4683 50.7561 33.8036 50.684 33.0842L48.3169 9.56418C48.2758 9.15342 48.3135 8.7377 48.4277 8.34412C48.5419 7.95055 48.73 7.58796 48.9798 7.28003C49.2295 6.97209 49.5353 6.72572 49.8771 6.55699C50.219 6.38826 50.5892 6.30096 50.9637 6.30078H66.6365ZM60.1322 25.4108C59.7789 25.4108 59.4401 25.5657 59.1903 25.8413C58.9405 26.117 58.8001 26.4909 58.8001 26.8808C58.8001 27.2707 58.9405 27.6446 59.1903 27.9202C59.4401 28.1959 59.7789 28.3508 60.1322 28.3508C60.4854 28.3508 60.8242 28.1959 61.0741 27.9202C61.3239 27.6446 61.4642 27.2707 61.4642 26.8808C61.4642 26.4909 61.3239 26.117 61.0741 25.8413C60.8242 25.5657 60.4854 25.4108 60.1322 25.4108ZM56.136 21.0008C55.7828 21.0008 55.4439 21.1557 55.1941 21.4313C54.9443 21.707 54.804 22.0809 54.804 22.4708C54.804 22.8606 54.9443 23.2346 55.1941 23.5102C55.4439 23.7859 55.7828 23.9408 56.136 23.9408C56.4893 23.9408 56.8281 23.7859 57.0779 23.5102C57.3277 23.2346 57.4681 22.8606 57.4681 22.4708C57.4681 22.0809 57.3277 21.707 57.0779 21.4313C56.8281 21.1557 56.4893 21.0008 56.136 21.0008ZM66.6365 9.24078H50.9637L51.5298 14.8606L51.7789 14.8121C52.1253 14.7474 52.5262 14.6945 52.9778 14.6651C54.4803 14.5666 56.525 14.7489 58.8787 15.772L59.3249 15.9749C61.3123 16.9157 63.008 17.1097 64.2282 17.0641L65.8586 16.9642L66.6365 9.24078Z" fill="#7CE4EE"/>
</g>
<rect x="96.6016" y="10.5" width="21" height="21" rx="9.45" fill="white"/>
<path fill-rule="evenodd" clip-rule="evenodd" d="M101.16 10.8277C105.109 10.3908 109.094 10.3908 113.043 10.8277C115.23 11.0724 116.994 12.7914 117.25 14.9818C117.719 18.98 117.719 23.019 117.25 27.0172C117.12 28.0815 116.634 29.0709 115.871 29.8249C115.107 30.5789 114.111 31.0533 113.043 31.1712C109.094 31.6096 105.109 31.6096 101.16 31.1712C100.092 31.0533 99.096 30.5789 98.3324 29.8249C97.5688 29.0709 97.0826 28.0815 96.9528 27.0172C96.4845 23.0194 96.4845 18.9808 96.9528 14.9831C97.0826 13.9189 97.5685 12.9297 98.3319 12.1757C99.0952 11.4217 100.091 10.9472 101.159 10.829L101.16 10.8277ZM107.102 14.6378C107.355 14.6378 107.599 14.7385 107.778 14.9177C107.958 15.0969 108.059 15.34 108.059 15.5935V20.0444H112.517C112.771 20.0444 113.015 20.1451 113.194 20.3244C113.374 20.5036 113.475 20.7467 113.475 21.0001C113.475 21.2536 113.374 21.4967 113.194 21.6759C113.015 21.8551 112.771 21.9558 112.517 21.9558H108.059V26.4068C108.059 26.6603 107.958 26.9033 107.778 27.0826C107.599 27.2618 107.355 27.3625 107.102 27.3625C106.848 27.3625 106.604 27.2618 106.425 27.0826C106.245 26.9033 106.144 26.6603 106.144 26.4068V21.9558H101.686C101.432 21.9558 101.188 21.8551 101.009 21.6759C100.829 21.4967 100.728 21.2536 100.728 21.0001C100.728 20.7467 100.829 20.5036 101.009 20.3244C101.188 20.1451 101.432 20.0444 101.686 20.0444H106.144V15.5935C106.144 15.34 106.245 15.0969 106.425 14.9177C106.604 14.7385 106.848 14.6378 107.102 14.6378Z" fill="#6F62E1"/>
<defs>
<clipPath id="clip0_0_198">
<rect x="37.8008" width="42" height="42" rx="10.5" fill="white"/>
</clipPath>
</defs>
</svg>
