<svg width="361" height="78" viewBox="0 0 361 78" fill="none" xmlns="http://www.w3.org/2000/svg">
<rect width="361" height="77.6417" rx="1.11501" fill="#8B80F8"/>
<g filter="url(#filter0_bf_0_19)">
<line x1="19" y1="69" x2="19" y2="5" stroke="white" stroke-opacity="0.5"/>
</g>
<g filter="url(#filter1_bf_0_19)">
<line x1="75" y1="69" x2="75" y2="5" stroke="white" stroke-opacity="0.5"/>
</g>
<g filter="url(#filter2_bf_0_19)">
<line x1="131" y1="69" x2="131" y2="5" stroke="white" stroke-opacity="0.5"/>
</g>
<g filter="url(#filter3_bf_0_19)">
<line x1="187" y1="69" x2="187" y2="5" stroke="white" stroke-opacity="0.5"/>
</g>
<g filter="url(#filter4_bf_0_19)">
<line x1="243" y1="69" x2="243" y2="5" stroke="white" stroke-opacity="0.5"/>
</g>
<g filter="url(#filter5_bf_0_19)">
<line x1="299" y1="69" x2="299" y2="5" stroke="white" stroke-opacity="0.5"/>
</g>
<g filter="url(#filter6_bf_0_19)">
<line x1="347.5" y1="71" x2="347.5" y2="7" stroke="white" stroke-opacity="0.5"/>
</g>
<path d="M352.158 55.0672C344.649 52.4246 307.148 46.2048 299.423 46.2048C293.396 46.2048 287.615 47.7032 281.799 49.2107C277.451 50.3378 273.083 51.47 268.577 51.9851C258.796 53.1894 248.263 50.7809 238.483 47.4091C227.95 44.0372 217.417 39.4612 207.636 32.7175C205.298 31.2206 202.997 29.6169 200.717 28.0275C192.724 22.4568 184.984 17.0625 176.789 17.0625C170.864 17.0625 164.662 20.3334 158.352 23.6616C154.246 25.827 150.094 28.0166 145.943 29.3456C139.862 31.4421 133.489 31.3971 127.188 31.3526C123.355 31.3255 119.548 31.2986 115.849 31.7541C106.126 32.6433 97.0452 36.6105 87.4216 40.8146C86.6191 41.1652 85.8129 41.5174 85.0021 41.8696C75.2215 46.2048 64.6885 50.7809 54.1556 53.1894C44.375 55.357 33.842 55.357 24.0614 49.5767C22.7521 48.8881 21.4545 48.1103 20.1758 47.2653" stroke="#17D1E0" stroke-width="3.82432" stroke-linecap="round"/>
<rect x="339.078" y="46" width="20" height="20" rx="10" fill="white"/>
<circle cx="349.258" cy="56.1798" r="3.82432" fill="#8B80F8"/>
<circle cx="19.9603" cy="46.9525" r="4.58918" fill="#17D1E0"/>
<circle cx="75" cy="46" r="4" fill="white"/>
<circle cx="131" cy="32" r="4" fill="white"/>
<circle cx="186" cy="19" r="4" fill="white"/>
<circle cx="242" cy="48" r="4" fill="white"/>
<circle cx="299" cy="46" r="4" fill="white"/>
<defs>
<filter id="filter0_bf_0_19" x="-1.5" y="-15" width="41" height="104" filterUnits="userSpaceOnUse" color-interpolation-filters="sRGB">
<feFlood flood-opacity="0" result="BackgroundImageFix"/>
<feGaussianBlur in="BackgroundImageFix" stdDeviation="10"/>
<feComposite in2="SourceAlpha" operator="in" result="effect1_backgroundBlur_0_19"/>
<feBlend mode="normal" in="SourceGraphic" in2="effect1_backgroundBlur_0_19" result="shape"/>
<feGaussianBlur stdDeviation="0.5" result="effect2_foregroundBlur_0_19"/>
</filter>
<filter id="filter1_bf_0_19" x="54.5" y="-15" width="41" height="104" filterUnits="userSpaceOnUse" color-interpolation-filters="sRGB">
<feFlood flood-opacity="0" result="BackgroundImageFix"/>
<feGaussianBlur in="BackgroundImageFix" stdDeviation="10"/>
<feComposite in2="SourceAlpha" operator="in" result="effect1_backgroundBlur_0_19"/>
<feBlend mode="normal" in="SourceGraphic" in2="effect1_backgroundBlur_0_19" result="shape"/>
<feGaussianBlur stdDeviation="0.5" result="effect2_foregroundBlur_0_19"/>
</filter>
<filter id="filter2_bf_0_19" x="110.5" y="-15" width="41" height="104" filterUnits="userSpaceOnUse" color-interpolation-filters="sRGB">
<feFlood flood-opacity="0" result="BackgroundImageFix"/>
<feGaussianBlur in="BackgroundImageFix" stdDeviation="10"/>
<feComposite in2="SourceAlpha" operator="in" result="effect1_backgroundBlur_0_19"/>
<feBlend mode="normal" in="SourceGraphic" in2="effect1_backgroundBlur_0_19" result="shape"/>
<feGaussianBlur stdDeviation="0.5" result="effect2_foregroundBlur_0_19"/>
</filter>
<filter id="filter3_bf_0_19" x="166.5" y="-15" width="41" height="104" filterUnits="userSpaceOnUse" color-interpolation-filters="sRGB">
<feFlood flood-opacity="0" result="BackgroundImageFix"/>
<feGaussianBlur in="BackgroundImageFix" stdDeviation="10"/>
<feComposite in2="SourceAlpha" operator="in" result="effect1_backgroundBlur_0_19"/>
<feBlend mode="normal" in="SourceGraphic" in2="effect1_backgroundBlur_0_19" result="shape"/>
<feGaussianBlur stdDeviation="0.5" result="effect2_foregroundBlur_0_19"/>
</filter>
<filter id="filter4_bf_0_19" x="222.5" y="-15" width="41" height="104" filterUnits="userSpaceOnUse" color-interpolation-filters="sRGB">
<feFlood flood-opacity="0" result="BackgroundImageFix"/>
<feGaussianBlur in="BackgroundImageFix" stdDeviation="10"/>
<feComposite in2="SourceAlpha" operator="in" result="effect1_backgroundBlur_0_19"/>
<feBlend mode="normal" in="SourceGraphic" in2="effect1_backgroundBlur_0_19" result="shape"/>
<feGaussianBlur stdDeviation="0.5" result="effect2_foregroundBlur_0_19"/>
</filter>
<filter id="filter5_bf_0_19" x="278.5" y="-15" width="41" height="104" filterUnits="userSpaceOnUse" color-interpolation-filters="sRGB">
<feFlood flood-opacity="0" result="BackgroundImageFix"/>
<feGaussianBlur in="BackgroundImageFix" stdDeviation="10"/>
<feComposite in2="SourceAlpha" operator="in" result="effect1_backgroundBlur_0_19"/>
<feBlend mode="normal" in="SourceGraphic" in2="effect1_backgroundBlur_0_19" result="shape"/>
<feGaussianBlur stdDeviation="0.5" result="effect2_foregroundBlur_0_19"/>
</filter>
<filter id="filter6_bf_0_19" x="327" y="-13" width="41" height="104" filterUnits="userSpaceOnUse" color-interpolation-filters="sRGB">
<feFlood flood-opacity="0" result="BackgroundImageFix"/>
<feGaussianBlur in="BackgroundImageFix" stdDeviation="10"/>
<feComposite in2="SourceAlpha" operator="in" result="effect1_backgroundBlur_0_19"/>
<feBlend mode="normal" in="SourceGraphic" in2="effect1_backgroundBlur_0_19" result="shape"/>
<feGaussianBlur stdDeviation="0.5" result="effect2_foregroundBlur_0_19"/>
</filter>
</defs>
</svg>
