<svg width="192" height="168" viewBox="0 0 192 168" fill="none" xmlns="http://www.w3.org/2000/svg">
<circle cx="38.1779" cy="22.9811" r="1.26376" transform="rotate(-38.4545 38.1779 22.9811)" fill="white"/>
<circle cx="31.4822" cy="28.8075" r="1.26376" transform="rotate(-43.9091 31.4822 28.8075)" fill="white"/>
<circle cx="25.3836" cy="35.239" r="1.26376" transform="rotate(-49.3636 25.3836 35.239)" fill="white"/>
<circle cx="19.9212" cy="42.2265" r="1.26376" transform="rotate(-54.8182 19.9212 42.2265)" fill="white"/>
<circle cx="15.1499" cy="49.7011" r="1.26376" transform="rotate(-60.2727 15.1499 49.7011)" fill="white"/>
<circle cx="11.113" cy="57.5901" r="1.26376" transform="rotate(-65.7273 11.113 57.5901)" fill="white"/>
<circle cx="7.84604" cy="65.8325" r="1.26376" transform="rotate(-71.1818 7.84604 65.8325)" fill="white"/>
<circle cx="5.37711" cy="74.3438" r="1.26376" transform="rotate(-76.6364 5.37711 74.3438)" fill="white"/>
<circle cx="3.73423" cy="83.0511" r="1.26376" transform="rotate(-82.0909 3.73423 83.0511)" fill="white"/>
<circle cx="2.9261" cy="91.8814" r="1.26376" transform="rotate(-87.5455 2.9261 91.8814)" fill="white"/>
<circle cx="2.96151" cy="100.738" r="1.26376" transform="rotate(-93 2.96151 100.738)" fill="white"/>
<circle cx="3.84157" cy="109.564" r="1.26376" transform="rotate(-98.4545 3.84157 109.564)" fill="white"/>
<circle cx="5.55573" cy="118.262" r="1.26376" transform="rotate(-103.909 5.55573 118.262)" fill="white"/>
<circle cx="8.09748" cy="126.76" r="1.26376" transform="rotate(-109.364 8.09748 126.76)" fill="white"/>
<circle cx="11.433" cy="134.979" r="1.26376" transform="rotate(-114.818 11.433 134.979)" fill="white"/>
<circle cx="15.5325" cy="142.842" r="1.26376" transform="rotate(-120.273 15.5325 142.842)" fill="white"/>
<circle cx="20.3622" cy="150.279" r="1.26376" transform="rotate(-125.727 20.3622 150.279)" fill="white"/>
<circle cx="25.8456" cy="157.228" r="1.26376" transform="rotate(-131.182 25.8456 157.228)" fill="white"/>
<circle cx="31.9763" cy="163.616" r="1.26376" transform="rotate(-136.636 31.9763 163.616)" fill="white"/>
<circle cx="160.58" cy="163.153" r="1.26376" transform="rotate(136.091 160.58 163.153)" fill="white"/>
<circle cx="166.663" cy="156.714" r="1.26376" transform="rotate(130.636 166.663 156.714)" fill="white"/>
<circle cx="172.11" cy="149.719" r="1.26376" transform="rotate(125.182 172.11 149.719)" fill="white"/>
<circle cx="176.874" cy="142.24" r="1.26376" transform="rotate(119.727 176.874 142.24)" fill="white"/>
<circle cx="180.899" cy="134.347" r="1.26376" transform="rotate(114.273 180.899 134.347)" fill="white"/>
<circle cx="184.158" cy="126.105" r="1.26376" transform="rotate(108.818 184.158 126.105)" fill="white"/>
<circle cx="186.623" cy="117.586" r="1.26376" transform="rotate(103.364 186.623 117.586)" fill="white"/>
<circle cx="188.262" cy="108.875" r="1.26376" transform="rotate(97.9091 188.262 108.875)" fill="white"/>
<circle cx="189.074" cy="100.052" r="1.26376" transform="rotate(92.4545 189.074 100.052)" fill="white"/>
<circle cx="189.046" cy="91.1875" r="1.26376" transform="rotate(87 189.046 91.1875)" fill="white"/>
<circle cx="188.174" cy="82.3616" r="1.26376" transform="rotate(81.5455 188.174 82.3616)" fill="white"/>
<circle cx="186.464" cy="73.6672" r="1.26376" transform="rotate(76.0909 186.464 73.6672)" fill="white"/>
<circle cx="183.942" cy="65.1738" r="1.26376" transform="rotate(70.6364 183.942 65.1738)" fill="white"/>
<circle cx="180.626" cy="56.9587" r="1.26376" transform="rotate(65.1818 180.626 56.9587)" fill="white"/>
<circle cx="176.542" cy="49.0996" r="1.26376" transform="rotate(59.7273 176.542 49.0996)" fill="white"/>
<circle cx="171.72" cy="41.6584" r="1.26376" transform="rotate(54.2727 171.72 41.6584)" fill="white"/>
<circle cx="166.205" cy="34.709" r="1.26376" transform="rotate(48.8182 166.205 34.709)" fill="white"/>
<circle cx="160.051" cy="28.3138" r="1.26376" transform="rotate(43.3636 160.051 28.3138)" fill="white"/>
<circle cx="153.322" cy="22.5314" r="1.26376" transform="rotate(37.9091 153.322 22.5314)" fill="white"/>
<circle cx="146.072" cy="17.4164" r="1.26376" transform="rotate(32.4545 146.072 17.4164)" fill="white"/>
<circle cx="138.377" cy="13.0162" r="1.26376" transform="rotate(27 138.377 13.0162)" fill="white"/>
<circle cx="130.297" cy="9.36222" r="1.26376" transform="rotate(21.5455 130.297 9.36222)" fill="white"/>
<circle cx="121.907" cy="6.49811" r="1.26376" transform="rotate(16.0909 121.907 6.49811)" fill="white"/>
<circle cx="113.282" cy="4.43625" r="1.26376" transform="rotate(10.6364 113.282 4.43625)" fill="white"/>
<circle cx="104.504" cy="3.21258" r="1.26376" transform="rotate(5.18182 104.504 3.21258)" fill="white"/>
<circle cx="95.6487" cy="2.82414" r="1.26376" transform="rotate(-0.272725 95.6487 2.82414)" fill="white"/>
<circle cx="86.8015" cy="3.27978" r="1.26376" transform="rotate(-5.72727 86.8015 3.27978)" fill="white"/>
<circle cx="78.0356" cy="4.57673" r="1.26376" transform="rotate(-11.1818 78.0356 4.57673)" fill="white"/>
<circle cx="69.436" cy="6.70452" r="1.26376" transform="rotate(-16.6364 69.436 6.70452)" fill="white"/>
<circle cx="61.0759" cy="9.63712" r="1.26376" transform="rotate(-22.0909 61.0759 9.63712)" fill="white"/>
<circle cx="53.037" cy="13.3564" r="1.26376" transform="rotate(-27.5455 53.037 13.3564)" fill="white"/>
<circle cx="45.3888" cy="17.813" r="1.26376" transform="rotate(-33 45.3888 17.813)" fill="white"/>
</svg>
