<svg width="80" height="80" viewBox="0 0 80 80" fill="none" xmlns="http://www.w3.org/2000/svg">
<g clip-path="url(#clip0_2_7583)">
<rect width="80" height="80" rx="20" fill="white"/>
<path fill-rule="evenodd" clip-rule="evenodd" d="M54.9252 12C55.6387 11.9999 56.3442 12.1659 56.9957 12.4872C57.6471 12.8084 58.2298 13.2776 58.7058 13.8642C59.1818 14.4508 59.5403 15.1415 59.758 15.8914C59.9757 16.6413 60.0477 17.4334 59.9692 18.216L55.458 63.016C55.3206 64.3862 54.73 65.6524 53.7993 66.572C52.8686 67.4916 51.6633 68.0001 50.414 68H29.5834C28.3342 68.0001 27.1288 67.4916 26.1981 66.572C25.2675 65.6524 24.6769 64.3862 24.5394 63.016L20.0308 18.216C19.9523 17.4336 20.0242 16.6417 20.2418 15.8921C20.4593 15.1424 20.8176 14.4518 21.2933 13.8652C21.7691 13.2787 22.3515 12.8094 23.0026 12.488C23.6537 12.1666 24.359 12.0003 25.0723 12H54.9252ZM42.536 48.4C41.863 48.4 41.2177 48.695 40.7419 49.2201C40.266 49.7452 39.9987 50.4574 39.9987 51.2C39.9987 51.9426 40.266 52.6548 40.7419 53.1799C41.2177 53.705 41.863 54 42.536 54C43.2089 54 43.8542 53.705 44.33 53.1799C44.8059 52.6548 45.0732 51.9426 45.0732 51.2C45.0732 50.4574 44.8059 49.7452 44.33 49.2201C43.8542 48.695 43.2089 48.4 42.536 48.4ZM34.9243 40C34.2514 40 33.606 40.295 33.1302 40.8201C32.6544 41.3452 32.3871 42.0574 32.3871 42.8C32.3871 43.5426 32.6544 44.2548 33.1302 44.7799C33.606 45.305 34.2514 45.6 34.9243 45.6C35.5972 45.6 36.2426 45.305 36.7184 44.7799C37.1942 44.2548 37.4615 43.5426 37.4615 42.8C37.4615 42.0574 37.1942 41.3452 36.7184 40.8201C36.2426 40.295 35.5972 40 34.9243 40ZM54.9252 17.6H25.0723L26.1506 28.3044L26.625 28.212C27.2847 28.0888 28.0484 27.988 28.9085 27.932C31.7705 27.7444 35.6652 28.0916 40.1484 30.0404L40.9984 30.4268C44.7839 32.2188 48.0138 32.5884 50.3379 32.5016L53.4435 32.3112L54.9252 17.6Z" fill="#7CE4EE"/>
</g>
<defs>
<clipPath id="clip0_2_7583">
<rect width="80" height="80" rx="20" fill="white"/>
</clipPath>
</defs>
</svg>
