<svg width="32" height="32" viewBox="0 0 32 32" fill="none" xmlns="http://www.w3.org/2000/svg">
<path d="M11.2258 29.4805C11.3478 29.6128 11.4127 29.7879 11.4063 29.9677C11.4 30.1476 11.3229 30.3177 11.1919 30.441L9.71846 31.8188C9.58689 31.941 9.41219 32.006 9.23272 31.9996C9.05325 31.9931 8.88369 31.9156 8.76129 31.7842L0.180668 22.5368C0.0587312 22.4044 -0.00603501 22.2292 0.000443116 22.0494C0.00692125 21.8695 0.0841202 21.6995 0.215264 21.5762L1.69071 20.2005C1.75581 20.1399 1.83222 20.0927 1.91557 20.0616C1.99892 20.0305 2.08757 20.0162 2.17646 20.0194C2.26535 20.0226 2.35274 20.0433 2.43363 20.0803C2.51451 20.1173 2.58732 20.1699 2.64788 20.2351L11.2258 29.4805ZM22.1746 12.0805C22.2965 12.2128 22.3613 12.388 22.3548 12.5679C22.3483 12.7477 22.2711 12.9178 22.14 13.041L12.8667 21.7037C12.7352 21.826 12.5605 21.891 12.381 21.8845C12.2015 21.878 12.032 21.8005 11.9096 21.6691L9.69607 19.2806C9.57414 19.1482 9.50937 18.9731 9.51585 18.7932C9.52233 18.6133 9.59953 18.4433 9.73067 18.32L19.0019 9.65735C19.0669 9.59676 19.1433 9.54959 19.2266 9.51853C19.3099 9.48748 19.3985 9.47315 19.4873 9.47636C19.5761 9.47957 19.6635 9.50027 19.7443 9.53726C19.8251 9.57425 19.8979 9.62681 19.9584 9.69194L22.1746 12.0805ZM14.3809 26.5316C14.6346 26.805 14.619 27.2371 14.3463 27.4922L12.8708 28.8693C12.8057 28.9299 12.7293 28.9771 12.646 29.0081C12.5626 29.0392 12.474 29.0535 12.3851 29.0503C12.2962 29.0471 12.2088 29.0264 12.1279 28.9894C12.047 28.9524 11.9742 28.8998 11.9136 28.8347L3.33777 19.5872C3.21575 19.4549 3.15086 19.2798 3.15722 19.1C3.16357 18.9201 3.24064 18.75 3.37169 18.6267L4.84442 17.2503C4.97599 17.128 5.15069 17.063 5.33016 17.0695C5.50963 17.076 5.67919 17.1534 5.80159 17.2849L14.3809 26.5316ZM28.6692 12.4122C28.7911 12.5446 28.8557 12.7199 28.8491 12.8997C28.8425 13.0796 28.7652 13.2496 28.634 13.3727L27.1592 14.7498C27.0276 14.8722 26.8528 14.9373 26.6733 14.931C26.4937 14.9246 26.3239 14.8473 26.2013 14.7159L17.6241 5.47049C17.5019 5.33828 17.4369 5.16314 17.4433 4.98322C17.4496 4.80331 17.5268 4.63319 17.658 4.50993L19.1369 3.12946C19.2019 3.06887 19.2783 3.0217 19.3616 2.99064C19.4448 2.95959 19.5334 2.94526 19.6223 2.94847C19.7111 2.95168 19.7984 2.97238 19.8793 3.00937C19.9601 3.04636 20.0329 3.09892 20.0934 3.16405L28.6692 12.4122ZM31.8195 9.46808C31.9414 9.60066 32.006 9.77588 31.9996 9.9558C31.9931 10.1357 31.916 10.3059 31.785 10.4293L30.3129 11.8057C30.2479 11.8664 30.1716 11.9136 30.0883 11.9447C30.005 11.9758 29.9165 11.9902 29.8276 11.987C29.7388 11.9839 29.6514 11.9633 29.5706 11.9263C29.4897 11.8894 29.417 11.8369 29.3564 11.7718L20.7805 2.52232C20.6586 2.38984 20.5938 2.21466 20.6002 2.03474C20.6065 1.85482 20.6835 1.68464 20.8145 1.56108L22.2879 0.181968C22.3528 0.121275 22.429 0.0739956 22.5122 0.0428418C22.5955 0.011688 22.684 -0.00272672 22.7728 0.000424606C22.8616 0.00357593 22.9489 0.0242313 23.0297 0.0612056C23.1105 0.0981799 23.1832 0.150745 23.2437 0.215886L31.8195 9.46808Z" fill="#7D83A7"/>
</svg>
