<svg width="24" height="25" viewBox="0 0 24 25" fill="none" xmlns="http://www.w3.org/2000/svg">
<path fill-rule="evenodd" clip-rule="evenodd" d="M2 12.668C2 7.14497 6.477 2.66797 12 2.66797C17.523 2.66797 22 7.14497 22 12.668C22 18.191 17.523 22.668 12 22.668C6.477 22.668 2 18.191 2 12.668ZM12 13.668C11.7348 13.668 11.4804 13.5626 11.2929 13.3751C11.1054 13.1875 11 12.9332 11 12.668V8.66797C11 8.40275 11.1054 8.1484 11.2929 7.96086C11.4804 7.77333 11.7348 7.66797 12 7.66797C12.2652 7.66797 12.5196 7.77333 12.7071 7.96086C12.8946 8.1484 13 8.40275 13 8.66797V12.668C13 12.9332 12.8946 13.1875 12.7071 13.3751C12.5196 13.5626 12.2652 13.668 12 13.668ZM10.5 16.668C10.5 16.2701 10.658 15.8886 10.9393 15.6073C11.2206 15.326 11.6022 15.168 12 15.168H12.01C12.4078 15.168 12.7894 15.326 13.0707 15.6073C13.352 15.8886 13.51 16.2701 13.51 16.668V16.678C13.51 17.0758 13.352 17.4573 13.0707 17.7386C12.7894 18.0199 12.4078 18.178 12.01 18.178H12C11.6022 18.178 11.2206 18.0199 10.9393 17.7386C10.658 17.4573 10.5 17.0758 10.5 16.678V16.668Z" fill="#17D1E0"/>
</svg>
