<svg width="354" height="32" viewBox="0 0 354 32" fill="none" xmlns="http://www.w3.org/2000/svg">
<rect y="12" width="2" height="20" fill="white" fill-opacity="0.75"/>
<rect x="11" y="16" width="2" height="16" fill="white" fill-opacity="0.75"/>
<rect x="20" y="16" width="2" height="16" fill="white" fill-opacity="0.75"/>
<rect x="30" y="16" width="2" height="16" fill="white" fill-opacity="0.75"/>
<rect x="40" y="16" width="2" height="16" fill="white" fill-opacity="0.75"/>
<rect x="51" y="12" width="2" height="20" fill="white" fill-opacity="0.75"/>
<rect x="51" y="16" width="2" height="16" fill="white" fill-opacity="0.75"/>
<rect x="61" y="16" width="2" height="16" fill="white" fill-opacity="0.75"/>
<rect x="71" y="16" width="2" height="16" fill="white" fill-opacity="0.75"/>
<rect x="81" y="16" width="2" height="16" fill="white" fill-opacity="0.75"/>
<rect x="92" y="12" width="2" height="20" fill="white" fill-opacity="0.75"/>
<rect x="103" y="16" width="2" height="16" fill="white" fill-opacity="0.75"/>
<rect x="113" y="16" width="2" height="16" fill="white" fill-opacity="0.75"/>
<rect x="123" y="16" width="2" height="16" fill="white" fill-opacity="0.75"/>
<rect x="133" y="16" width="2" height="16" fill="white" fill-opacity="0.75"/>
<rect x="144" y="12" width="2" height="20" fill="white" fill-opacity="0.75"/>
<rect x="185" y="16" width="2" height="16" fill="white" fill-opacity="0.75"/>
<rect x="196" width="2" height="32" fill="white"/>
<rect x="175" y="16" width="2" height="16" fill="white" fill-opacity="0.75"/>
<rect x="165" y="16" width="2" height="16" fill="white" fill-opacity="0.75"/>
<rect x="155" y="16" width="2" height="16" fill="white" fill-opacity="0.75"/>
<rect x="207" y="16" width="2" height="16" fill="white" fill-opacity="0.75"/>
<rect x="217" y="16" width="2" height="16" fill="white" fill-opacity="0.75"/>
<rect x="227" y="16" width="2" height="16" fill="white" fill-opacity="0.75"/>
<rect x="237" y="16" width="2" height="16" fill="white" fill-opacity="0.75"/>
<rect x="248" y="12" width="2" height="20" fill="white" fill-opacity="0.75"/>
<rect x="259" y="16" width="2" height="16" fill="white" fill-opacity="0.75"/>
<rect x="269" y="16" width="2" height="16" fill="white" fill-opacity="0.75"/>
<rect x="279" y="16" width="2" height="16" fill="white" fill-opacity="0.75"/>
<rect x="289" y="16" width="2" height="16" fill="white" fill-opacity="0.75"/>
<rect x="300" y="12" width="2" height="20" fill="white" fill-opacity="0.75"/>
<rect x="311" y="16" width="2" height="16" fill="white" fill-opacity="0.75"/>
<rect x="321" y="16" width="2" height="16" fill="white" fill-opacity="0.75"/>
<rect x="331" y="16" width="2" height="16" fill="white" fill-opacity="0.75"/>
<rect x="341" y="16" width="2" height="16" fill="white" fill-opacity="0.75"/>
<rect x="352" y="12" width="2" height="20" fill="white" fill-opacity="0.75"/>
</svg>
