<svg width="48" height="48" viewBox="0 0 48 48" fill="none" xmlns="http://www.w3.org/2000/svg">
<rect width="48" height="48" rx="24" fill="#FEFEFE"/>
<path d="M24 12C17.3729 12 12 17.3729 12 24C12 30.6271 17.3729 36 24 36C30.6271 36 36 30.6271 36 24C36 17.3729 30.6271 12 24 12ZM29.5385 25.8462H24C23.7552 25.8462 23.5204 25.7489 23.3473 25.5758C23.1742 25.4027 23.0769 25.1679 23.0769 24.9231V16.6154C23.0769 16.3706 23.1742 16.1358 23.3473 15.9627C23.5204 15.7896 23.7552 15.6923 24 15.6923C24.2448 15.6923 24.4796 15.7896 24.6527 15.9627C24.8258 16.1358 24.9231 16.3706 24.9231 16.6154V24H29.5385C29.7833 24 30.0181 24.0973 30.1912 24.2704C30.3643 24.4435 30.4615 24.6783 30.4615 24.9231C30.4615 25.1679 30.3643 25.4027 30.1912 25.5758C30.0181 25.7489 29.7833 25.8462 29.5385 25.8462Z" fill="black"/>
</svg>
