<svg width="80" height="64" viewBox="0 0 80 64" fill="none" xmlns="http://www.w3.org/2000/svg">
<g clip-path="url(#clip0_0_216)">
<path d="M31.531 51.1945C29.9491 49.9727 29.9049 47.9564 31.4322 46.6909C32.9595 45.4255 35.4799 45.3901 37.0617 46.6119C38.6435 47.8337 38.6877 49.8501 37.1604 51.1155C35.6332 52.381 33.1128 52.4163 31.531 51.1945Z" fill="#E5B35A"/>
<path d="M30.4234 48.1692L37.9922 50.0942L44.7734 37.9042L35.3984 35.1992L30.4234 48.1692Z" fill="#E5B35A"/>
<path d="M18.5758 50.1102L20.5695 55.4502L35.4883 51.9452L33.1508 46.0352L18.5758 50.1102Z" fill="#E5B35A"/>
<path d="M15.0076 52.7552L16.7576 57.4052C16.8377 57.62 16.97 57.8199 17.1471 57.9936C17.3242 58.1673 17.5424 58.3113 17.7893 58.4172C18.0361 58.5232 18.3068 58.589 18.5856 58.611C18.8644 58.6329 19.1458 58.6106 19.4138 58.5452L19.5138 58.5202C19.7823 58.4561 20.0322 58.3502 20.2493 58.2086C20.4664 58.0669 20.6464 57.8923 20.7788 57.6948C20.9112 57.4973 20.9936 57.2808 21.021 57.0578C21.0485 56.8348 21.0205 56.6096 20.9388 56.3952L19.1888 51.7452C19.1087 51.5304 18.9763 51.3305 18.7993 51.1568C18.6222 50.9831 18.4039 50.8392 18.1571 50.7332C17.9102 50.6273 17.6396 50.5614 17.3608 50.5394C17.082 50.5175 16.8005 50.5398 16.5326 50.6052L16.4326 50.6302C15.3013 50.9002 14.6638 51.8502 15.0076 52.7552Z" fill="#4568AD"/>
<path d="M19.6719 58.481L16.6894 50.5625L13.8587 51.2445L16.8413 59.163L19.6719 58.481Z" fill="#4568AD"/>
<path d="M19.6055 52.8401L18.5742 50.1016L16.2761 50.6556L17.3073 53.3941L19.6055 52.8401Z" fill="#4568AD"/>
<path d="M58.738 62.776L64.0192 60.376C64.2626 60.2654 64.4764 60.1175 64.6483 59.9408C64.8202 59.7641 64.9469 59.562 65.0212 59.3461C65.0955 59.1302 65.1159 58.9047 65.0813 58.6825C65.0466 58.4603 64.9576 58.2457 64.8192 58.051L64.7692 57.976C64.631 57.7813 64.4461 57.6103 64.2252 57.4728C64.0043 57.3352 63.7517 57.2339 63.4818 57.1744C63.2119 57.115 62.9301 57.0987 62.6523 57.1264C62.3746 57.1541 62.1063 57.2254 61.863 57.336L56.5817 59.736C56.3384 59.8466 56.1246 59.9945 55.9527 60.1712C55.7808 60.348 55.654 60.55 55.5797 60.766C55.5055 60.9819 55.4851 61.2073 55.5197 61.4296C55.5544 61.6518 55.6434 61.8663 55.7817 62.061L55.8317 62.136C56.1115 62.5288 56.5746 62.8168 57.1194 62.9368C57.6643 63.0568 58.2464 62.999 58.738 62.776Z" fill="#4568AD"/>
<path d="M64.6794 57.8555L55.6931 61.9425L57.1544 63.9985L66.1406 59.9115L64.6794 57.8555Z" fill="#4568AD"/>
<path d="M57.8216 59.1602L54.7141 60.5737L55.9003 62.2427L59.0078 60.8292L57.8216 59.1602Z" fill="#4568AD"/>
<path d="M45.7526 49.1244C45.1807 47.4259 46.4382 45.6782 48.5613 45.2206C50.6844 44.7631 52.8691 45.7691 53.441 47.4676C54.0129 49.1661 52.7554 50.9139 50.6323 51.3714C48.5092 51.8289 46.3245 50.8229 45.7526 49.1244Z" fill="#F4D598"/>
<path d="M46.8273 50.577L52.7773 46.372L43.1961 35.457L35.4711 40.502L46.8273 50.577Z" fill="#F4D598"/>
<path d="M54.7578 60.6341L60.8203 57.8891L53.1141 46.7891L46.4328 49.9291L54.7578 60.6341Z" fill="#F4D598"/>
<path d="M39.3273 41.9661C36.5763 41.9661 34.3461 40.1819 34.3461 37.9811C34.3461 35.7802 36.5763 33.9961 39.3273 33.9961C42.0784 33.9961 44.3086 35.7802 44.3086 37.9811C44.3086 40.1819 42.0784 41.9661 39.3273 41.9661Z" fill="#F4D598"/>
<path d="M50.7044 33.85L54.3281 31.6985L48.8869 25.832L45.2631 27.983L50.7044 33.85Z" fill="#FBC11B"/>
<path d="M52.0829 34.5571C50.8439 34.3599 50.0391 33.3966 50.2855 32.4053C50.5319 31.414 51.7361 30.7702 52.9752 30.9673C54.2143 31.1644 55.019 32.1278 54.7726 33.1191C54.5263 34.1104 53.322 34.7542 52.0829 34.5571Z" fill="#FBC11B"/>
<path d="M51.6172 27.2834L45.8547 30.5784L41.5922 25.8084C41.0607 25.2119 40.8464 24.4713 40.9964 23.7486C41.1463 23.026 41.6483 22.3805 42.3922 21.9534L42.5359 21.8734C43.2815 21.4482 44.2074 21.2768 45.1106 21.3968C46.0139 21.5167 46.8209 21.9183 47.3547 22.5134L51.6172 27.2834Z" fill="#3615AF"/>
<path d="M59.872 35.2015L60.332 31.6105L52.6408 30.9805L52.1808 34.5715L59.872 35.2015Z" fill="#FBC11B"/>
<path d="M65.2708 33.7266L65.2583 33.8416C65.2216 34.141 65.1114 34.4318 64.9341 34.6971C64.7568 34.9625 64.5159 35.1974 64.2251 35.3882C63.9343 35.5791 63.5993 35.7222 63.2393 35.8094C62.8793 35.8966 62.5014 35.9263 62.1271 35.8966L60.5146 35.7666C60.1402 35.7372 59.7768 35.649 59.4451 35.5072C59.1134 35.3653 58.8198 35.1726 58.5813 34.94C58.3427 34.7073 58.1638 34.4393 58.0548 34.1513C57.9457 33.8634 57.9087 33.561 57.9458 33.2616L57.9583 33.1466C57.9951 32.8471 58.1053 32.5564 58.2826 32.291C58.4599 32.0256 58.7008 31.7908 58.9916 31.5999C59.2824 31.4091 59.6174 31.2659 59.9774 31.1787C60.3373 31.0915 60.7153 31.0619 61.0896 31.0916L62.7021 31.2216C63.0766 31.2506 63.4403 31.3385 63.7722 31.4802C64.1042 31.6219 64.3979 31.8147 64.6366 32.0474C64.8752 32.2801 65.0541 32.5482 65.163 32.8364C65.2718 33.1245 65.3085 33.427 65.2708 33.7266ZM43.8896 15.4616L42.2708 20.5416L46.9646 21.9916L51.8646 12.3516L43.8896 15.4616Z" fill="#FBC11B"/>
<path d="M44.2504 10.3085L42.9816 18.9885L50.0566 19.6935C53.3441 20.0235 56.3066 18.0835 56.5566 15.4385L56.8566 12.2335C57.1379 9.27346 54.1566 6.76346 50.4504 6.83346L48.9754 6.86346C46.5441 6.91346 44.5316 8.37846 44.2504 10.3085Z" fill="#FBC11B"/>
<path d="M43.1304 16.1734L46.5054 16.0134L46.9491 14.1734C47.0221 13.8689 47.1974 13.5861 47.4562 13.3553C47.7149 13.1245 48.0474 12.9544 48.4179 12.8634L48.9054 14.9834C49.6866 14.9434 50.3929 14.5834 50.7616 14.0284L51.4929 12.9234C51.6491 12.6876 51.8736 12.4852 52.1476 12.333C52.4216 12.1808 52.7372 12.0832 53.0679 12.0484L56.8554 11.6534C56.8554 11.6534 57.4241 7.55342 52.4366 6.58342C51.5741 6.41842 50.7179 6.29342 49.8929 6.19842C46.0554 5.76842 42.6366 8.16842 42.6491 11.2684C42.6658 12.9104 42.8266 14.5494 43.1304 16.1734Z" fill="#6D4C41"/>
<path d="M53.9451 13.9944C53.8951 14.3794 54.1826 14.7194 54.5826 14.7494C54.9826 14.7794 55.3451 14.4944 55.3889 14.1094C55.4389 13.7244 55.1514 13.3844 54.7514 13.3544C54.3514 13.3194 53.9951 13.6094 53.9451 13.9944Z" fill="#C07B47"/>
<path d="M36.2259 37.5537L44.0009 39.0287C45.4884 39.3087 46.9759 38.5737 47.3322 37.3887L49.2447 25.9037C49.5009 24.0287 49.6947 20.8487 46.5884 20.2637L43.9009 19.7537C41.2259 19.2487 39.3634 21.5637 38.5822 23.7687L34.1697 34.8887C34.0008 35.4602 34.1225 36.062 34.5081 36.5618C34.8937 37.0615 35.5116 37.4183 36.2259 37.5537Z" fill="#651FFF"/>
<path d="M30.1853 27.9609L32.4372 31.0899L40.3516 27.4449L38.1003 24.3164L30.1853 27.9609Z" fill="#FBC11B"/>
<path d="M30.6176 31.2768C29.4152 30.9665 28.755 29.9352 29.1429 28.9734C29.5307 28.0115 30.8199 27.4833 32.0222 27.7936C33.2245 28.1039 33.8848 29.1352 33.4969 30.0971C33.109 31.0589 31.8199 31.5871 30.6176 31.2768Z" fill="#FBC11B"/>
<path d="M38.2291 29.4498L34.8104 24.4898L41.2229 21.6548C42.0255 21.3019 42.9702 21.2179 43.8501 21.4213C44.7299 21.6247 45.4731 22.0988 45.9166 22.7398L45.9979 22.8598C46.4391 23.5019 46.544 24.2577 46.2898 24.9615C46.0356 25.6654 45.4429 26.2599 44.6416 26.6148L38.2291 29.4498Z" fill="#3615AF"/>
<path d="M25.6858 34.3227L29.6977 35.9762L33.2383 30.4777L29.2264 28.8242L25.6858 34.3227Z" fill="#FBC11B"/>
<path d="M25.4377 38.8806L25.3127 38.8306C24.9775 38.6937 24.6794 38.5051 24.4354 38.2759C24.1915 38.0466 24.0064 37.7811 23.8909 37.4945C23.7754 37.208 23.7316 36.906 23.7622 36.6059C23.7927 36.3058 23.897 36.0135 24.0689 35.7456L24.8064 34.5956C24.9777 34.3275 25.2133 34.089 25.4999 33.8938C25.7865 33.6986 26.1184 33.5506 26.4766 33.4582C26.8348 33.3658 27.2122 33.3308 27.5874 33.3552C27.9625 33.3797 28.3279 33.4631 28.6627 33.6006L28.7877 33.6506C29.1229 33.7876 29.421 33.9761 29.6649 34.2054C29.9089 34.4347 30.094 34.7002 30.2095 34.9867C30.325 35.2733 30.3688 35.5753 30.3382 35.8754C30.3077 36.1755 30.2034 36.4678 30.0314 36.7356L29.2939 37.8856C28.9464 38.4258 28.3455 38.8338 27.6227 39.0203C26.8999 39.2068 26.1143 39.1566 25.4377 38.8806Z" fill="#FBC11B"/>
<path d="M42.8568 9.9944C42.8568 9.9944 39.5755 9.0444 36.9943 13.0044C34.938 16.1594 29.8568 17.3444 29.8568 17.3444C29.8568 17.3444 35.0443 18.4294 39.4943 16.3694C43.938 14.3094 42.8568 9.9944 42.8568 9.9944Z" fill="#6D4C41"/>
</g>
<defs>
<clipPath id="clip0_0_216">
<rect width="80" height="64" fill="white" transform="matrix(-1 0 0 1 80 0)"/>
</clipPath>
</defs>
</svg>
