<svg width="32" height="32" viewBox="0 0 32 32" fill="none" xmlns="http://www.w3.org/2000/svg">
<path d="M21.8085 18.9784L24.4473 19.1441V32L17.1584 27.3416V19.9304L19.2754 20.5491L21.8085 18.9784ZM10.1915 18.9784L7.5513 19.1441V32L14.84 27.3416V19.9304L12.7232 20.5491L10.1915 18.9784ZM30.1803 10.9241L31.0343 12.7032L28.4709 13.7376L28.2562 15.586L25.2564 16.033L24.0008 17.7244L20.9254 17.5299L18.7781 18.8577L16 18.0454L13.2219 18.8577L11.0746 17.5256L7.99924 17.72L6.74364 16.0287L3.74381 15.586L3.52913 13.7402L0.958413 12.7023L1.81245 10.9233L0 9.42456L1.81826 7.92751L0.958413 6.152L3.52332 5.11757L3.73799 3.27165L6.74364 2.82908L7.99924 1.13774L11.0746 1.3321L13.2219 0L16 0.812313L18.7781 0L20.9254 1.3321L24.0008 1.13774L25.2564 2.82908L28.2562 3.27603L28.4709 5.12188L31.0343 6.15631L30.1803 7.93537L32 9.42456L30.1803 10.9241ZM24.4603 9.42456C24.4603 8.4306 23.9679 7.45897 23.0453 6.63252C22.1226 5.80608 20.8113 5.16194 19.277 4.78157C17.7428 4.4012 16.0545 4.30168 14.4257 4.49559C12.797 4.6895 11.3009 5.16814 10.1266 5.87097C8.95231 6.5738 8.15262 7.46927 7.82864 8.44412C7.50465 9.41898 7.67093 10.4294 8.30644 11.3477C8.94196 12.266 10.0182 13.0509 11.399 13.6031C12.7798 14.1553 14.4031 14.4501 16.0638 14.4501C18.2896 14.448 20.4233 13.9179 21.9972 12.9758C23.5711 12.0338 24.4568 10.7568 24.4603 9.42456ZM16.0638 5.78748C14.862 5.78748 13.6871 6.00078 12.6878 6.40042C11.6885 6.80006 10.9097 7.36808 10.4498 8.03265C9.98984 8.69722 9.86949 9.4285 10.104 10.134C10.3384 10.8395 10.9171 11.4876 11.767 11.9962C12.6168 12.5049 13.6995 12.8513 14.8782 12.9916C16.057 13.1319 17.2788 13.0599 18.3891 12.7847C19.4995 12.5094 20.4485 12.0432 21.1163 11.4452C21.784 10.8471 22.1404 10.1439 22.1404 9.42456C22.1358 8.46105 21.494 7.53782 20.3553 6.85676C19.2166 6.17569 17.6736 5.7922 16.0638 5.79012V5.78748Z" fill="white"/>
</svg>
