<svg width="20" height="20" viewBox="0 0 20 20" fill="none" xmlns="http://www.w3.org/2000/svg">
<path fill-rule="evenodd" clip-rule="evenodd" d="M15.8363 3.33103H15.0029V1.66431H13.3362V3.33103H6.66932V1.66431H5.0026V3.33103H4.16924C3.24421 3.33103 2.50252 4.08105 2.50252 4.99774V16.6648C2.50252 17.5815 3.24421 18.3315 4.16924 18.3315H15.8363C16.753 18.3315 17.503 17.5815 17.503 16.6648V4.99774C17.503 4.08105 16.753 3.33103 15.8363 3.33103ZM15.8363 16.6648H4.16924V7.49782H15.8363V16.6648ZM5.41928 10.8313C5.41928 9.68122 6.35264 8.74786 7.50268 8.74786C8.65271 8.74786 9.58607 9.68122 9.58607 10.8313C9.58607 11.9813 8.65271 12.9146 7.50268 12.9146C6.35264 12.9146 5.41928 11.9813 5.41928 10.8313Z" fill="#CAC4D0"/>
</svg>
