<svg width="28" height="28" viewBox="0 0 28 28" fill="none" xmlns="http://www.w3.org/2000/svg">
<g clip-path="url(#clip0_0_187)">
<path d="M10.7336 3.99933C10.7336 3.19453 11.0778 2.4227 11.6904 1.85362C12.303 1.28455 13.1339 0.964844 14.0003 0.964844C14.8666 0.964844 15.6975 1.28455 16.3101 1.85362C16.9228 2.4227 17.2669 3.19453 17.2669 3.99933C19.1427 4.82323 20.7417 6.10575 21.8926 7.70944C23.0435 9.31312 23.703 11.1775 23.8003 13.1028V17.6545C23.9232 18.5978 24.2828 19.5011 24.8502 20.2917C25.4176 21.0822 26.1769 21.738 27.0669 22.2062H0.933594C1.82366 21.738 2.58295 21.0822 3.15033 20.2917C3.71772 19.5011 4.07734 18.5978 4.20026 17.6545V13.1028C4.29754 11.1775 4.95699 9.31312 6.10791 7.70944C7.25884 6.10575 8.85786 4.82323 10.7336 3.99933" stroke="#17D1E0" stroke-width="1.5" stroke-linecap="round" stroke-linejoin="round"/>
<path d="M10 22.7031V23.6686C10 24.4369 10.4214 25.1736 11.1716 25.7168C11.9217 26.26 12.9391 26.5652 14 26.5652C15.0609 26.5652 16.0783 26.26 16.8284 25.7168C17.5786 25.1736 18 24.4369 18 23.6686V22.7031" stroke="#17D1E0" stroke-width="1.5" stroke-linecap="round" stroke-linejoin="round"/>
</g>
<defs>
<clipPath id="clip0_0_187">
<rect width="28" height="28" fill="white"/>
</clipPath>
</defs>
</svg>
