<svg width="319" height="23" viewBox="0 0 319 23" fill="none" xmlns="http://www.w3.org/2000/svg">
<rect width="4" height="22" rx="2" fill="#9747FF"/>
<rect x="7" width="4" height="14" rx="2" fill="#9747FF"/>
<rect x="14" width="4" height="14" rx="2" fill="#9747FF"/>
<rect x="21" width="4" height="14" rx="2" fill="#9747FF"/>
<rect x="28" width="4" height="14" rx="2" fill="#9747FF"/>
<rect x="35" width="4" height="22" rx="2" fill="#9747FF"/>
<rect x="42" width="4" height="14" rx="2" fill="#9747FF"/>
<rect x="49" width="4" height="14" rx="2" fill="#9747FF"/>
<rect x="56" width="4" height="14" rx="2" fill="#9747FF"/>
<rect x="63" width="4" height="14" rx="2" fill="#9747FF"/>
<rect x="70" width="4" height="22" rx="2" fill="#9747FF"/>
<rect x="77" width="4" height="14" rx="2" fill="#9747FF"/>
<rect x="84" width="4" height="14" rx="2" fill="#9747FF"/>
<rect x="91" width="4" height="14" rx="2" fill="#9747FF"/>
<rect x="98" width="4" height="14" rx="2" fill="#9747FF"/>
<rect x="105" width="4" height="22" rx="2" fill="#9747FF"/>
<rect x="112" width="4" height="14" rx="2" fill="#9747FF"/>
<rect x="119" width="4" height="14" rx="2" fill="#9747FF"/>
<rect x="126" width="4" height="14" rx="2" fill="#9747FF"/>
<rect x="133" width="4" height="14" rx="2" fill="#9747FF"/>
<rect x="140" width="4" height="22" rx="2" fill="#9747FF"/>
<rect x="147" width="4" height="14" rx="2" fill="#9747FF"/>
<rect x="154" width="4" height="14" rx="2" fill="#9747FF"/>
<rect x="161" width="4" height="14" rx="2" fill="#9747FF"/>
<rect x="168" width="4" height="14" rx="2" fill="#9747FF"/>
<rect x="175" width="4" height="22" rx="2" fill="#9747FF"/>
<rect x="182" width="4" height="14" rx="2" fill="#9747FF"/>
<rect x="189" width="4" height="14" rx="2" fill="#9747FF"/>
<rect x="196" width="4" height="14" rx="2" fill="#9747FF"/>
<rect x="203" width="4" height="14" rx="2" fill="#9747FF"/>
<rect x="210" width="4" height="22" rx="2" fill="#9747FF"/>
<rect x="217" width="4" height="14" rx="2" fill="#9747FF"/>
<rect x="224" width="4" height="14" rx="2" fill="#9747FF"/>
<rect x="231" width="4" height="14" rx="2" fill="#9747FF"/>
<rect x="238" width="4" height="14" rx="2" fill="#9747FF"/>
<rect x="245" width="4" height="22" rx="2" fill="#9747FF"/>
<rect x="252" width="4" height="14" rx="2" fill="#D9D9D9"/>
<rect x="259" width="4" height="14" rx="2" fill="#D9D9D9"/>
<rect x="266" width="4" height="14" rx="2" fill="#D9D9D9"/>
<rect x="273" width="4" height="14" rx="2" fill="#D9D9D9"/>
<rect x="280" width="4" height="22" rx="2" fill="#D9D9D9"/>
<rect x="287" width="4" height="14" rx="2" fill="#D9D9D9"/>
<rect x="294" width="4" height="14" rx="2" fill="#D9D9D9"/>
<rect x="301" width="4" height="14" rx="2" fill="#D9D9D9"/>
<rect x="308" width="4" height="14" rx="2" fill="#D9D9D9"/>
<rect x="315" width="4" height="22" rx="2" fill="#D9D9D9"/>
</svg>
