<svg width="33" height="33" viewBox="0 0 33 33" fill="none" xmlns="http://www.w3.org/2000/svg">
<path d="M15.5491 4.33195C15.8701 3.47132 16.3891 2.68894 17.0693 2.04325C17.7224 1.41177 18.5129 0.926203 19.3839 0.620423C20.2548 0.31467 21.1854 0.195995 22.1095 0.272601C22.603 0.30834 23.0688 0.511516 23.4218 0.848107C23.7751 1.18492 23.9921 1.63336 24.0304 2.11298C24.0304 2.1135 24.0305 2.11401 24.0305 2.11453L23.7813 2.1342C23.8588 2.98239 23.739 3.83645 23.4305 4.63541C23.1473 5.36863 22.7115 6.03887 22.1502 6.60617L15.5491 4.33195ZM15.5491 4.33195C14.2888 2.89048 12.5665 1.88017 10.6438 1.46L10.6428 1.45978C10.4912 1.42734 10.3345 1.42369 10.1815 1.449C10.0285 1.47432 9.88177 1.5282 9.74961 1.608C9.61743 1.68781 9.50225 1.79214 9.4111 1.91555C9.31992 2.03899 9.25468 2.179 9.21966 2.32771C9.18464 2.47644 9.18068 2.63044 9.20804 2.78072C9.2354 2.93099 9.29343 3.07404 9.37829 3.20178C9.46312 3.32949 9.57298 3.43923 9.70108 3.52523C9.82908 3.61117 9.97297 3.67185 10.1245 3.70431L15.5491 4.33195ZM29.5899 9.84854C27.6986 7.9846 25.1687 6.84507 22.4752 6.62785L11.4736 32.5C13.0292 32.4988 14.5666 32.1812 15.9833 31.5684L16.0817 31.7982C16.0819 31.7982 16.082 31.7981 16.0821 31.798C16.2161 31.7407 16.3617 31.7109 16.5094 31.7109C16.6569 31.7109 16.8024 31.7407 16.9363 31.7979C18.3713 32.4241 19.9301 32.7487 21.5074 32.75H21.5076C24.8725 32.75 27.6861 30.1867 29.6404 27.0287C31.5998 23.8623 32.75 20.0149 32.75 17.2902V17.29C32.7477 14.5104 31.6133 11.8427 29.5899 9.84854ZM18.7467 3.67866L18.7468 3.67869L18.75 3.67553C19.1582 3.28119 19.651 2.97414 20.1957 2.77577C20.672 2.60231 21.1778 2.51561 21.6868 2.51969C21.6887 2.54401 21.6898 2.56383 21.6898 2.58176C21.6882 3.60448 21.2657 4.58818 20.5091 5.32049C20.0917 5.70554 19.5939 6.004 19.0472 6.19618C18.5694 6.36413 18.0639 6.44754 17.5555 6.44279C17.5465 5.96797 17.6319 5.49492 17.8081 5.04871C18.0117 4.53303 18.3318 4.06521 18.7467 3.67866ZM17.9054 29.7088L17.9041 29.7083L15.2129 9.37183C15.6064 9.54943 16.0364 9.64123 16.4718 9.64055V9.89055H16.4722L16.5094 9.89056L16.51 9.89055C16.9909 9.88931 17.4663 9.79086 17.9051 9.60133L17.8059 9.37183L17.9044 9.60161C19.0367 9.11633 20.2649 8.86659 21.5071 8.8694H21.5075C23.8585 8.87032 26.111 9.76007 27.7717 11.3401C29.432 12.9198 30.3652 15.06 30.371 17.2909C30.3708 19.76 29.3235 23.0694 27.6692 25.763C26.8435 27.1076 25.8737 28.2866 24.8209 29.1269C23.7679 29.9673 22.646 30.4583 21.5083 30.4585C20.2647 30.4553 19.0365 30.1996 17.9054 29.7088ZM10.812 8.89518C12.2852 8.78582 13.7635 9.02854 15.1127 9.60089L15.2129 29.9382L15.1143 29.7084C15.114 29.7085 15.1137 29.7087 15.1135 29.7088C13.9692 30.1998 12.7286 30.4554 11.473 30.4585C10.3352 30.4583 9.21454 29.9674 8.16345 29.1271C7.11239 28.2868 6.14498 27.1079 5.32154 25.7633C3.67188 23.0696 2.62914 19.76 2.62904 17.2906C2.6337 15.8872 3.00555 14.5065 3.71172 13.2734C4.41802 12.0401 5.43673 10.993 6.67659 10.228C7.91651 9.46302 9.33793 9.00462 10.812 8.89518Z" fill="white" stroke="white" stroke-width="0.5"/>
</svg>
