<svg width="16" height="24" viewBox="0 0 16 24" fill="none" xmlns="http://www.w3.org/2000/svg">
<path d="M0.709599 23.3719C0.934403 23.571 1.20143 23.729 1.49539 23.8367C1.78935 23.9445 2.10447 24 2.42272 24C2.74097 24 3.05609 23.9445 3.35005 23.8367C3.64401 23.729 3.91104 23.571 4.13585 23.3719L15.2894 13.5137C15.5146 13.315 15.6934 13.079 15.8153 12.8192C15.9372 12.5594 16 12.2808 16 11.9995C16 11.7183 15.9372 11.4397 15.8153 11.1799C15.6934 10.9201 15.5146 10.6841 15.2894 10.4854L4.13585 0.62719C3.91087 0.428347 3.6438 0.270613 3.34986 0.163C3.05592 0.0553875 2.74088 0 2.42272 0C2.10456 0 1.78952 0.0553875 1.49559 0.163C1.20165 0.270613 0.934569 0.428347 0.709599 0.62719C0.484628 0.826033 0.30617 1.06209 0.184417 1.32189C0.062664 1.58169 -1.90735e-06 1.86015 0 2.14136C0 2.42256 0.062664 2.70101 0.184417 2.96081C0.30617 3.22062 0.484628 3.45668 0.709599 3.65552L10.1379 12.0103L0.709599 20.3436C-0.213787 21.1812 -0.213787 22.5558 0.709599 23.3719Z" fill="white"/>
</svg>
