<svg width="24" height="24" viewBox="0 0 24 24" fill="none" xmlns="http://www.w3.org/2000/svg">
<path d="M5.7358 0L4.85141 0.340172C5.17395 1.27689 5.32482 2.22408 4.97106 3.16961C5.20516 3.43205 5.43406 3.69117 5.66296 3.94479C6.31325 2.59898 6.14158 1.17985 5.7358 0ZM4.39361 3.96684C4.03985 4.11019 3.72668 4.29213 3.44315 4.50163C4.85661 6.1446 6.05314 7.89784 6.76065 9.57941C7.42134 11.1617 7.66584 12.7385 7.13521 14.0507L18.5698 22.8114C20.0005 22.7342 20.9265 22.3648 21.5611 21.8466C22.227 21.3063 22.6068 20.584 22.8825 19.7294C22.7317 19.553 22.5652 19.3821 22.3831 19.2112C21.0461 19.4593 19.8756 19.1781 18.9028 18.5275C17.8883 17.8549 17.0924 16.8129 16.4161 15.6055C15.1415 13.3285 14.2831 10.4229 13.4144 8.02465C11.0993 8.27275 9.40341 7.93092 8.07162 7.24176C6.47972 6.41476 5.43406 5.14118 4.39361 3.96684ZM2.73304 5.1522C2.4953 5.42236 2.28304 5.72008 2.09108 6.03985C1.54172 6.96058 1.16507 8.07978 0.84305 9.23207L6.34967 13.4498C6.6462 12.507 6.46932 11.3271 5.90227 9.98188C5.25198 8.44366 4.10228 6.75107 2.73304 5.1522ZM15.1623 7.74347C14.8918 7.7986 14.6317 7.84822 14.3716 7.89233C14.5641 8.42712 14.7566 8.97846 14.949 9.5353L16.3016 10.2575C15.9427 9.3699 15.5889 8.52085 15.1623 7.74347ZM0.320741 10.0591C0.179239 10.219 0.0876791 10.3844 0.0403383 10.5553C-0.0236498 10.7758 -0.0153262 11.0184 0.0928812 11.3161L12.5196 19.8287C13.6537 20.6005 14.6733 21.2401 15.5993 21.7639L0.320741 10.0591ZM15.4224 10.9026C15.7814 11.9115 16.1612 12.9095 16.5826 13.8302L18.3097 14.6406C17.7271 13.6427 17.2797 12.6503 16.8791 11.68L15.4224 10.9026ZM17.3057 15.2471C17.9143 16.3057 18.6062 17.1602 19.4022 17.6895C19.9744 18.0699 20.5935 18.2905 21.3166 18.3125C20.5467 17.6289 19.9068 16.9232 19.3606 16.2064L17.3057 15.2471ZM23.538 20.6722C23.2311 21.4055 22.7993 22.0947 22.1334 22.635C21.5403 23.1146 20.7808 23.473 19.808 23.6604C20.7184 23.9306 21.4311 24.0188 21.9721 23.9968C22.7473 23.9637 23.1895 23.7376 23.46 23.5116C23.7305 23.2855 23.8345 23.0595 23.8814 22.9492C24.0634 22.5192 24.0478 21.8521 23.7513 21.1133C23.6941 20.9699 23.6212 20.8211 23.538 20.6722Z" fill="#F19A39"/>
</svg>
