<svg width="20" height="19" viewBox="0 0 20 19" fill="none" xmlns="http://www.w3.org/2000/svg">
<ellipse cx="9.83828" cy="8.54781" rx="5.6" ry="5.04" fill="#17D1E0"/>
<mask id="path-2-outside-1_0_183" maskUnits="userSpaceOnUse" x="0" y="-0.730469" width="20" height="20" fill="black">
<rect fill="white" y="-0.730469" width="20" height="20"/>
<path d="M13.3333 6.80799L13.2427 6.7243C12.447 5.98985 11.3679 5.57723 10.2427 5.57722H10C8.93913 5.57722 7.92172 5.96623 7.17157 6.65868C6.42143 7.35112 6 8.29027 6 9.26953C6 10.2488 6.42143 11.1879 7.17157 11.8804C7.92172 12.5728 8.93913 12.9618 10 12.9618H10.2427C11.368 12.9618 12.4467 12.5495 13.2427 11.8148L13.3333 11.7311M4.832 14.4868C3.08773 13.5475 2 11.7264 2 9.74538V8.79369C2 6.81262 3.08773 4.99152 4.832 4.0523L7.44695 2.64425C9.0408 1.78603 10.9592 1.78603 12.5531 2.64425L15.168 4.0523C16.9123 4.99152 18 6.81262 18 8.79369V9.74537C18 11.7264 16.9123 13.5475 15.168 14.4868L12.5531 15.8948C10.9592 16.753 9.04079 16.753 7.44694 15.8948L4.832 14.4868Z"/>
</mask>
<path d="M13.3333 6.80799L13.2427 6.7243C12.447 5.98985 11.3679 5.57723 10.2427 5.57722H10C8.93913 5.57722 7.92172 5.96623 7.17157 6.65868C6.42143 7.35112 6 8.29027 6 9.26953C6 10.2488 6.42143 11.1879 7.17157 11.8804C7.92172 12.5728 8.93913 12.9618 10 12.9618H10.2427C11.368 12.9618 12.4467 12.5495 13.2427 11.8148L13.3333 11.7311M4.832 14.4868C3.08773 13.5475 2 11.7264 2 9.74538V8.79369C2 6.81262 3.08773 4.99152 4.832 4.0523L7.44695 2.64425C9.0408 1.78603 10.9592 1.78603 12.5531 2.64425L15.168 4.0523C16.9123 4.99152 18 6.81262 18 8.79369V9.74537C18 11.7264 16.9123 13.5475 15.168 14.4868L12.5531 15.8948C10.9592 16.753 9.04079 16.753 7.44694 15.8948L4.832 14.4868Z" fill="#17D1E0"/>
<path d="M13.2427 6.7243L11.8861 8.1939L11.8861 8.19391L13.2427 6.7243ZM10.2427 5.57722L10.2427 3.57722H10.2427V5.57722ZM10 12.9618V14.9618V12.9618ZM12.5531 15.8948L11.6049 14.1339L12.5531 15.8948ZM4.832 14.4868L3.8838 16.2477L4.832 14.4868ZM14.6899 5.33839L14.5992 5.25469L11.8861 8.19391L11.9768 8.2776L14.6899 5.33839ZM14.5992 5.2547C13.4185 4.16478 11.849 3.57724 10.2427 3.57722L10.2427 7.57722C10.8868 7.57723 11.4755 7.81492 11.8861 8.1939L14.5992 5.2547ZM10.2427 3.57722H10V7.57722H10.2427V3.57722ZM10 3.57722C8.45806 3.57722 6.95025 4.14116 5.81501 5.18907L8.52813 8.12828C8.89319 7.79131 9.42021 7.57722 10 7.57722V3.57722ZM5.81501 5.18907C4.67439 6.24195 4 7.70583 4 9.26953H8C8 8.87471 8.16846 8.46029 8.52813 8.12828L5.81501 5.18907ZM4 9.26953C4 10.8332 4.67439 12.2971 5.81501 13.35L8.52813 10.4108C8.16846 10.0788 8 9.66435 8 9.26953H4ZM5.81501 13.35C6.95025 14.3979 8.45806 14.9618 10 14.9618V10.9618C9.4202 10.9618 8.89319 10.7478 8.52813 10.4108L5.81501 13.35ZM10 14.9618H10.2427V10.9618H10V14.9618ZM10.2427 14.9618C11.849 14.9618 13.4181 14.3746 14.5992 13.2844L11.8861 10.3452C11.4752 10.7244 10.887 10.9618 10.2427 10.9618V14.9618ZM14.5992 13.2844L14.6899 13.2007L11.9768 10.2615L11.8861 10.3452L14.5992 13.2844ZM4 9.74538V8.79369H0V9.74538H4ZM5.7802 5.81324L8.39515 4.40519L6.49875 0.88331L3.8838 2.29136L5.7802 5.81324ZM11.6049 4.4052L14.2198 5.81324L16.1162 2.29136L13.5013 0.883311L11.6049 4.4052ZM16 8.79369V9.74537H20V8.79369H16ZM14.2198 12.7258L11.6049 14.1339L13.5013 17.6558L16.1162 16.2477L14.2198 12.7258ZM8.39514 14.1339L5.7802 12.7258L3.8838 16.2477L6.49875 17.6558L8.39514 14.1339ZM11.6049 14.1339C10.603 14.6734 9.39704 14.6734 8.39514 14.1339L6.49875 17.6558C8.68455 18.8327 11.3155 18.8327 13.5013 17.6558L11.6049 14.1339ZM16 9.74537C16 10.9907 15.3163 12.1354 14.2198 12.7258L16.1162 16.2477C18.5083 14.9597 20 12.4622 20 9.74537H16ZM14.2198 5.81324C15.3163 6.40364 16 7.54838 16 8.79369H20C20 6.07686 18.5083 3.57941 16.1162 2.29136L14.2198 5.81324ZM8.39515 4.40519C9.39704 3.86571 10.603 3.86571 11.6049 4.4052L13.5013 0.883311C11.3155 -0.293659 8.68455 -0.293661 6.49875 0.88331L8.39515 4.40519ZM4 8.79369C4 7.54838 4.68375 6.40364 5.7802 5.81324L3.8838 2.29136C1.49171 3.57941 0 6.07686 0 8.79369H4ZM0 9.74538C0 12.4622 1.49171 14.9597 3.8838 16.2477L5.7802 12.7258C4.68375 12.1354 4 10.9907 4 9.74538H0Z" fill="white" mask="url(#path-2-outside-1_0_183)"/>
</svg>
