<svg width="63" height="23" viewBox="0 0 63 23" fill="none" xmlns="http://www.w3.org/2000/svg">
<path d="M8.04765 1.32032C8.96238 1.32032 9.83965 1.65501 10.4865 2.25075C11.1333 2.8465 11.4966 3.65451 11.4966 4.49702V10.8504C11.4966 11.6929 11.1333 12.501 10.4865 13.0967C9.83965 13.6925 8.96238 14.0271 8.04765 14.0271C7.13292 14.0271 6.25566 13.6925 5.60885 13.0967C4.96203 12.501 4.59866 11.6929 4.59866 10.8504V4.49702C4.59866 3.65451 4.96203 2.8465 5.60885 2.25075C6.25566 1.65501 7.13292 1.32032 8.04765 1.32032ZM16.0953 10.8504C16.0953 14.5884 13.0947 17.6698 9.19732 18.1886V21.4395H6.89799V18.1886C3.00063 17.6698 0 14.5884 0 10.8504H2.29933C2.29933 12.2546 2.90495 13.6013 3.98297 14.5942C5.06099 15.5871 6.5231 16.1449 8.04765 16.1449C9.5722 16.1449 11.0343 15.5871 12.1123 14.5942C13.1904 13.6013 13.796 12.2546 13.796 10.8504H16.0953Z" fill="#121212" fill-opacity="0.5"/>
<path d="M56.6289 5.52372L40.9915 10.7268C40.8689 10.7676 40.7608 10.8429 40.6802 10.9438C40.5995 11.0446 40.5497 11.1667 40.5369 11.2953C40.526 11.4195 40.55 11.5443 40.6062 11.6557C40.6624 11.7671 40.7485 11.8607 40.8549 11.9259L46.7438 15.3045L52.1008 9.94752L53.0494 10.8961L47.6924 16.2531L51.0378 22.1467C51.0902 22.2377 51.1631 22.3151 51.2508 22.3728C51.3384 22.4305 51.4384 22.4668 51.5426 22.4789C51.6468 22.491 51.7523 22.4784 51.8507 22.4422C51.9491 22.4061 52.0376 22.3473 52.1091 22.2707C52.1828 22.1961 52.2379 22.1052 52.2701 22.0054L57.4732 6.36795C57.511 6.25057 57.5156 6.12499 57.4866 6.00504C57.4576 5.8851 57.396 5.77544 57.3087 5.68815C57.2214 5.60086 57.1118 5.53932 56.9918 5.51031C56.8719 5.4813 56.7463 5.48594 56.6289 5.52372Z" fill="#121212" fill-opacity="0.5"/>
</svg>
